<?xml version="1.0" encoding="UTF-8" standalone="no"?>
<svg
   xmlns:dc="http://purl.org/dc/elements/1.1/"
   xmlns:cc="http://creativecommons.org/ns#"
   xmlns:rdf="http://www.w3.org/1999/02/22-rdf-syntax-ns#"
   xmlns:svg="http://www.w3.org/2000/svg"
   xmlns="http://www.w3.org/2000/svg"
   viewBox="0 0 194.01057 162.20842"
   height="162.20842"
   width="194.01057"
   xml:space="preserve"
   version="1.1"
   id="svg2"><metadata
     id="metadata8"><rdf:RDF><cc:Work
         rdf:about=""><dc:format>image/svg+xml</dc:format><dc:type
           rdf:resource="http://purl.org/dc/dcmitype/StillImage" /></cc:Work></rdf:RDF></metadata><defs
     id="defs6" /><g
     transform="matrix(1.25,0,0,-1.25,0,162.20842)"
     id="g10"><g
       id="g12"><path
         id="path14"
         style="fill:#b0b0b0;fill-opacity:1;fill-rule:nonzero;stroke:none"
         d="m 82.992,34.04 0,-3.742 -15.547,0 0,-7.039 15.547,0 0,-3.742 8.766,7.261 -8.766,7.262 z" /><path
         id="path16"
         style="fill:#39e29b;fill-opacity:1;fill-rule:nonzero;stroke:none"
         d="M 62.379,26.778 C 62.379,11.989 50.391,0.001 35.602,0.001 20.812,0.001 8.82,11.989 8.82,26.778 c 0,14.79 11.992,26.782 26.782,26.782 14.789,0 26.777,-11.992 26.777,-26.782 z" /><path
         id="path18"
         style="fill:#000000;fill-opacity:1;fill-rule:nonzero;stroke:none"
         d="m 16.785,29.892 0,5.547 1.969,0 c 0.531,0 0.988,-0.125 1.375,-0.375 0.383,-0.25 0.68,-0.602 0.891,-1.047 0.218,-0.438 0.328,-0.903 0.328,-1.391 0,-0.742 -0.219,-1.359 -0.657,-1.859 -0.437,-0.5 -0.953,-0.789 -1.546,-0.86 -0.086,-0.011 -0.211,-0.015 -0.375,-0.015 l -1.985,0 z m 0.688,0.453 1.14,0 c 0.664,0 1.188,0.242 1.563,0.734 0.312,0.406 0.469,0.922 0.469,1.547 0,0.676 -0.18,1.238 -0.532,1.688 -0.355,0.457 -0.855,0.687 -1.5,0.687 l -1.14,0 0,-4.656 z" /><path
         id="path20"
         style="fill:#000000;fill-opacity:1;fill-rule:nonzero;stroke:none"
         d="m 21.91,33.454 0.641,0 c 0.332,-0.781 0.582,-1.398 0.75,-1.844 0.176,-0.437 0.281,-0.714 0.312,-0.828 0.032,-0.117 0.063,-0.277 0.094,-0.484 0.008,0.363 0.363,1.414 1.063,3.156 l 0.593,0 -1.734,-4.281 c -0.156,-0.352 -0.305,-0.594 -0.438,-0.719 -0.125,-0.133 -0.289,-0.203 -0.484,-0.203 -0.219,0 -0.414,0.024 -0.578,0.063 l -0.047,0.515 c 0.289,-0.082 0.488,-0.125 0.594,-0.125 0.144,0 0.25,0.055 0.312,0.156 0.071,0.106 0.188,0.336 0.344,0.688 0.031,0.094 0.055,0.168 0.078,0.219 0.02,0.054 0.031,0.093 0.031,0.125 0,0.039 -0.011,0.086 -0.031,0.14 l -1.5,3.422 z" /><path
         id="path22"
         style="fill:#000000;fill-opacity:1;fill-rule:nonzero;stroke:none"
         d="m 26.129,29.892 0,3.593 0.578,0 0,-0.546 c 0.313,0.394 0.703,0.593 1.172,0.593 0.195,0 0.363,-0.031 0.5,-0.093 0.144,-0.055 0.254,-0.125 0.328,-0.219 0.082,-0.086 0.141,-0.195 0.172,-0.328 0.039,-0.125 0.066,-0.242 0.078,-0.344 0.008,-0.094 0.016,-0.215 0.016,-0.359 l 0,-2.297 -0.625,0 0,2.25 c 0,0.093 0,0.164 0,0.218 0,0.051 -0.016,0.125 -0.047,0.219 -0.031,0.102 -0.074,0.18 -0.125,0.235 -0.055,0.062 -0.133,0.113 -0.235,0.156 -0.105,0.051 -0.23,0.078 -0.375,0.078 -0.281,0 -0.492,-0.121 -0.625,-0.359 -0.125,-0.243 -0.187,-0.532 -0.187,-0.875 l 0,-1.922 -0.625,0 z" /><path
         id="path24"
         style="fill:#000000;fill-opacity:1;fill-rule:nonzero;stroke:none"
         d="m 29.988,30.798 c 0,0.195 0.071,0.367 0.219,0.516 0.145,0.144 0.336,0.254 0.578,0.328 0.25,0.07 0.488,0.125 0.719,0.156 0.226,0.031 0.461,0.047 0.703,0.047 l 0,0.281 c -0.012,0.344 -0.078,0.586 -0.203,0.734 -0.137,0.157 -0.309,0.235 -0.516,0.235 -0.406,0 -0.808,-0.137 -1.203,-0.406 l -0.047,0.546 c 0.407,0.227 0.828,0.344 1.266,0.344 0.363,0 0.672,-0.125 0.922,-0.375 0.25,-0.242 0.383,-0.531 0.406,-0.875 l 0,-2.437 -0.609,0 0,0.281 c -0.024,-0.023 -0.075,-0.059 -0.157,-0.109 -0.074,-0.043 -0.226,-0.102 -0.453,-0.172 -0.218,-0.063 -0.461,-0.094 -0.718,-0.094 -0.305,0 -0.532,0.109 -0.688,0.328 -0.148,0.219 -0.219,0.442 -0.219,0.672 z m 0.578,0 c 0,-0.137 0.067,-0.258 0.204,-0.359 0.144,-0.094 0.328,-0.141 0.546,-0.141 0.227,0 0.43,0.047 0.61,0.141 0.187,0.101 0.281,0.269 0.281,0.5 l 0,0.5 c -0.168,0 -0.34,-0.012 -0.516,-0.032 -0.168,-0.023 -0.343,-0.054 -0.531,-0.093 -0.18,-0.043 -0.324,-0.11 -0.437,-0.204 -0.106,-0.085 -0.157,-0.187 -0.157,-0.312 z" /><path
         id="path26"
         style="fill:#000000;fill-opacity:1;fill-rule:nonzero;stroke:none"
         d="m 34.113,29.892 0,3.593 0.578,0 0,-0.546 c 0.313,0.394 0.704,0.593 1.172,0.593 0.52,0 0.86,-0.218 1.016,-0.656 0.32,0.438 0.723,0.656 1.203,0.656 0.207,0 0.383,-0.039 0.531,-0.109 0.145,-0.063 0.254,-0.141 0.328,-0.234 0.071,-0.086 0.129,-0.196 0.172,-0.329 0.039,-0.136 0.063,-0.25 0.063,-0.343 0.008,-0.086 0.015,-0.196 0.015,-0.328 l 0,-2.297 -0.64,0 0,2.25 c 0,0.008 0,0.023 0,0.047 0,0.019 -0.008,0.062 -0.016,0.125 -0.012,0.062 -0.027,0.117 -0.047,0.171 -0.023,0.063 -0.054,0.125 -0.093,0.188 -0.032,0.07 -0.075,0.133 -0.125,0.187 -0.055,0.051 -0.122,0.094 -0.204,0.125 -0.086,0.04 -0.183,0.063 -0.296,0.063 -0.282,0 -0.493,-0.121 -0.625,-0.359 -0.125,-0.243 -0.188,-0.532 -0.188,-0.875 l 0,-1.922 -0.625,0 0,2.25 c 0,0.093 0,0.164 0,0.218 0,0.051 -0.016,0.125 -0.047,0.219 -0.031,0.102 -0.074,0.18 -0.125,0.235 -0.055,0.062 -0.133,0.113 -0.234,0.156 -0.106,0.051 -0.231,0.078 -0.375,0.078 -0.281,0 -0.492,-0.121 -0.625,-0.359 -0.125,-0.243 -0.188,-0.532 -0.188,-0.875 l 0,-1.922 -0.625,0 z" /><path
         id="path28"
         style="fill:#000000;fill-opacity:1;fill-rule:nonzero;stroke:none"
         d="m 40.473,29.892 0,3.562 0.609,0 0,-3.562 -0.609,0 z m -0.063,4.406 0,0.703 0.719,0 0,-0.703 -0.719,0 z" /><path
         id="path30"
         style="fill:#000000;fill-opacity:1;fill-rule:nonzero;stroke:none"
         d="m 42.02,31.673 c 0,0.5 0.156,0.941 0.468,1.328 0.321,0.383 0.754,0.578 1.297,0.578 0.25,0 0.453,-0.027 0.61,-0.078 0.164,-0.043 0.375,-0.133 0.625,-0.266 l -0.094,-0.531 c -0.262,0.164 -0.465,0.266 -0.61,0.297 -0.148,0.039 -0.328,0.063 -0.546,0.063 -0.368,0 -0.649,-0.137 -0.844,-0.407 -0.188,-0.273 -0.281,-0.601 -0.281,-0.984 0,-0.398 0.101,-0.727 0.312,-0.984 0.207,-0.25 0.477,-0.375 0.813,-0.375 0.406,0 0.82,0.144 1.25,0.437 l 0.031,-0.547 c -0.418,-0.273 -0.852,-0.406 -1.297,-0.406 -0.492,0 -0.902,0.18 -1.234,0.547 -0.336,0.375 -0.5,0.816 -0.5,1.328 z" /><path
         id="path32"
         style="fill:#000000;fill-opacity:1;fill-rule:nonzero;stroke:none"
         d="m 45.645,30.798 c 0,0.195 0.07,0.367 0.218,0.516 0.145,0.144 0.336,0.254 0.578,0.328 0.25,0.07 0.489,0.125 0.719,0.156 0.227,0.031 0.461,0.047 0.703,0.047 l 0,0.281 c -0.011,0.344 -0.078,0.586 -0.203,0.734 -0.137,0.157 -0.308,0.235 -0.515,0.235 -0.407,0 -0.809,-0.137 -1.204,-0.406 l -0.046,0.546 c 0.406,0.227 0.828,0.344 1.265,0.344 0.363,0 0.672,-0.125 0.922,-0.375 0.25,-0.242 0.383,-0.531 0.406,-0.875 l 0,-2.437 -0.609,0 0,0.281 c -0.024,-0.023 -0.074,-0.059 -0.156,-0.109 -0.075,-0.043 -0.227,-0.102 -0.453,-0.172 -0.219,-0.063 -0.461,-0.094 -0.719,-0.094 -0.305,0 -0.531,0.109 -0.688,0.328 -0.148,0.219 -0.218,0.442 -0.218,0.672 z m 0.578,0 c 0,-0.137 0.066,-0.258 0.203,-0.359 0.144,-0.094 0.328,-0.141 0.547,-0.141 0.226,0 0.429,0.047 0.609,0.141 0.188,0.101 0.281,0.269 0.281,0.5 l 0,0.5 c -0.168,0 -0.34,-0.012 -0.515,-0.032 -0.168,-0.023 -0.344,-0.054 -0.532,-0.093 -0.179,-0.043 -0.324,-0.11 -0.437,-0.204 -0.106,-0.085 -0.156,-0.187 -0.156,-0.312 z" /><path
         id="path34"
         style="fill:#000000;fill-opacity:1;fill-rule:nonzero;stroke:none"
         d="m 49.77,35.673 0.609,0 0,-5.781 -0.609,0 0,5.781 z" /><path
         id="path36"
         style="fill:#000000;fill-opacity:1;fill-rule:nonzero;stroke:none"
         d="m 16.379,20.267 0.109,0.672 c 0.563,-0.45 1.133,-0.672 1.719,-0.672 0.344,0 0.625,0.101 0.844,0.312 0.219,0.219 0.328,0.469 0.328,0.75 0,0.207 -0.07,0.395 -0.203,0.563 -0.125,0.176 -0.293,0.304 -0.5,0.39 -0.012,0.008 -0.34,0.098 -0.985,0.266 -0.324,0.082 -0.609,0.254 -0.859,0.516 -0.25,0.269 -0.375,0.597 -0.375,0.984 0,0.406 0.164,0.77 0.5,1.094 0.332,0.32 0.77,0.484 1.313,0.484 0.5,0 0.988,-0.133 1.468,-0.391 l -0.125,-0.656 c -0.218,0.164 -0.429,0.289 -0.625,0.375 -0.187,0.082 -0.433,0.125 -0.734,0.125 -0.344,0 -0.625,-0.094 -0.844,-0.281 -0.211,-0.188 -0.312,-0.406 -0.312,-0.656 0,-0.188 0.054,-0.36 0.172,-0.516 0.125,-0.156 0.281,-0.273 0.468,-0.344 0.071,-0.031 0.266,-0.086 0.578,-0.156 0.313,-0.074 0.52,-0.133 0.625,-0.172 0.289,-0.125 0.539,-0.324 0.75,-0.594 0.207,-0.273 0.313,-0.589 0.313,-0.953 0,-0.461 -0.172,-0.855 -0.516,-1.187 -0.336,-0.332 -0.761,-0.5 -1.281,-0.5 -0.648,0 -1.258,0.18 -1.828,0.547 z" /><path
         id="path38"
         style="fill:#000000;fill-opacity:1;fill-rule:nonzero;stroke:none"
         d="m 20.566,23.454 0.641,0 c 0.332,-0.781 0.582,-1.398 0.75,-1.844 0.176,-0.437 0.281,-0.714 0.313,-0.828 0.031,-0.117 0.062,-0.277 0.093,-0.484 0.008,0.363 0.364,1.414 1.063,3.156 l 0.594,0 -1.735,-4.281 c -0.156,-0.352 -0.305,-0.594 -0.437,-0.719 -0.125,-0.133 -0.289,-0.203 -0.485,-0.203 -0.218,0 -0.414,0.024 -0.578,0.063 l -0.047,0.515 c 0.289,-0.082 0.489,-0.125 0.594,-0.125 0.145,0 0.25,0.055 0.313,0.156 0.07,0.106 0.187,0.336 0.343,0.688 0.032,0.094 0.055,0.168 0.078,0.219 0.02,0.054 0.032,0.093 0.032,0.125 0,0.039 -0.012,0.086 -0.032,0.14 l -1.5,3.422 z" /><path
         id="path40"
         style="fill:#000000;fill-opacity:1;fill-rule:nonzero;stroke:none"
         d="m 24.363,20.157 0.094,0.547 c 0.008,0 0.039,-0.023 0.094,-0.062 0.062,-0.032 0.109,-0.059 0.14,-0.078 0.032,-0.012 0.079,-0.032 0.141,-0.063 0.07,-0.031 0.133,-0.058 0.188,-0.078 0.05,-0.023 0.113,-0.043 0.187,-0.063 0.082,-0.023 0.164,-0.039 0.25,-0.046 0.082,0 0.164,0 0.25,0 0.27,0 0.461,0.05 0.578,0.156 0.113,0.113 0.172,0.238 0.172,0.375 0,0.133 -0.047,0.242 -0.141,0.328 -0.093,0.094 -0.199,0.156 -0.312,0.187 -0.055,0.02 -0.172,0.047 -0.359,0.079 -0.18,0.039 -0.313,0.07 -0.407,0.093 -0.218,0.071 -0.414,0.192 -0.578,0.36 -0.168,0.164 -0.25,0.375 -0.25,0.625 0,0.125 0.016,0.238 0.047,0.343 0.039,0.114 0.102,0.227 0.188,0.344 0.093,0.114 0.226,0.203 0.406,0.266 0.187,0.07 0.41,0.109 0.672,0.109 0.382,0 0.773,-0.086 1.172,-0.25 l -0.094,-0.531 c -0.012,0.008 -0.043,0.023 -0.094,0.047 -0.055,0.019 -0.086,0.035 -0.094,0.047 -0.011,0.008 -0.043,0.023 -0.093,0.047 -0.055,0.019 -0.09,0.031 -0.11,0.031 -0.012,0.008 -0.043,0.019 -0.094,0.031 -0.043,0.02 -0.078,0.031 -0.109,0.031 -0.023,0.008 -0.059,0.02 -0.109,0.032 -0.055,0.007 -0.102,0.015 -0.141,0.015 -0.043,0.008 -0.09,0.016 -0.141,0.016 -0.054,0 -0.109,0 -0.171,0 -0.243,0 -0.415,-0.055 -0.516,-0.156 -0.106,-0.094 -0.156,-0.204 -0.156,-0.329 0,-0.179 0.066,-0.308 0.203,-0.39 0.144,-0.074 0.347,-0.133 0.609,-0.172 0.258,-0.043 0.442,-0.09 0.547,-0.141 0.188,-0.086 0.348,-0.214 0.484,-0.39 0.133,-0.168 0.204,-0.371 0.204,-0.61 0,-0.125 -0.024,-0.246 -0.063,-0.359 -0.031,-0.117 -0.094,-0.234 -0.187,-0.359 -0.086,-0.118 -0.219,-0.211 -0.407,-0.282 -0.179,-0.07 -0.39,-0.109 -0.64,-0.109 -0.469,0 -0.922,0.117 -1.36,0.359 z" /><path
         id="path42"
         style="fill:#000000;fill-opacity:1;fill-rule:nonzero;stroke:none"
         d="m 27.348,22.985 0,0.469 0.687,0 0,1 0.563,0 0,-1 1.125,0 0,-0.469 -1.125,0 0,-1.968 c 0,-0.469 0.144,-0.703 0.437,-0.703 0.219,0 0.453,0.086 0.703,0.265 l 0.125,-0.469 c -0.375,-0.21 -0.773,-0.312 -1.187,-0.312 -0.438,0 -0.656,0.344 -0.656,1.031 l 0,2.156 -0.672,0 z" /><path
         id="path44"
         style="fill:#000000;fill-opacity:1;fill-rule:nonzero;stroke:none"
         d="m 30.363,21.704 c 0,0.52 0.16,0.961 0.485,1.328 0.32,0.364 0.703,0.547 1.14,0.547 0.157,0 0.305,-0.027 0.453,-0.078 0.145,-0.055 0.289,-0.137 0.438,-0.25 0.144,-0.117 0.266,-0.293 0.359,-0.531 0.094,-0.231 0.149,-0.512 0.172,-0.844 l 0,-0.219 -2.484,0 c 0.019,-0.406 0.144,-0.734 0.375,-0.984 0.226,-0.25 0.5,-0.375 0.812,-0.375 0.407,0 0.813,0.145 1.219,0.437 l 0.047,-0.531 c -0.406,-0.273 -0.828,-0.406 -1.266,-0.406 -0.511,0 -0.933,0.187 -1.265,0.562 -0.325,0.383 -0.485,0.833 -0.485,1.344 z m 0.61,0.391 1.984,0 c -0.031,0.207 -0.09,0.379 -0.172,0.515 -0.086,0.145 -0.18,0.25 -0.281,0.313 -0.106,0.062 -0.199,0.102 -0.281,0.125 -0.086,0.02 -0.164,0.031 -0.235,0.031 -0.273,0 -0.496,-0.105 -0.672,-0.312 -0.179,-0.211 -0.293,-0.434 -0.343,-0.672 z" /><path
         id="path46"
         style="fill:#000000;fill-opacity:1;fill-rule:nonzero;stroke:none"
         d="m 34.285,19.892 0,3.593 0.578,0 0,-0.546 c 0.313,0.394 0.703,0.593 1.172,0.593 0.52,0 0.86,-0.218 1.016,-0.656 0.32,0.438 0.722,0.656 1.203,0.656 0.207,0 0.383,-0.039 0.531,-0.109 0.145,-0.063 0.254,-0.141 0.328,-0.234 0.071,-0.086 0.129,-0.196 0.172,-0.329 0.039,-0.136 0.063,-0.25 0.063,-0.343 0.007,-0.086 0.015,-0.196 0.015,-0.328 l 0,-2.297 -0.64,0 0,2.25 c 0,0.008 0,0.023 0,0.047 0,0.019 -0.008,0.062 -0.016,0.125 -0.012,0.062 -0.027,0.117 -0.047,0.171 -0.023,0.063 -0.055,0.125 -0.094,0.188 -0.031,0.07 -0.074,0.133 -0.125,0.187 -0.054,0.051 -0.121,0.094 -0.203,0.125 -0.086,0.04 -0.183,0.063 -0.297,0.063 -0.281,0 -0.492,-0.121 -0.625,-0.359 -0.125,-0.243 -0.187,-0.532 -0.187,-0.875 l 0,-1.922 -0.625,0 0,2.25 c 0,0.093 0,0.164 0,0.218 0,0.051 -0.016,0.125 -0.047,0.219 -0.031,0.102 -0.074,0.18 -0.125,0.235 -0.055,0.062 -0.133,0.113 -0.234,0.156 -0.106,0.051 -0.231,0.078 -0.375,0.078 -0.282,0 -0.493,-0.121 -0.625,-0.359 -0.125,-0.243 -0.188,-0.532 -0.188,-0.875 l 0,-1.922 -0.625,0 z" /><path
         id="path48"
         style="fill:#000000;fill-opacity:1;fill-rule:nonzero;stroke:none"
         d="m 42.676,19.892 1.547,1.828 0,0.015 -1.5,1.719 0.672,0 1.093,-1.328 0.016,0 1.062,1.328 0.657,0 -1.469,-1.719 0,-0.015 1.609,-1.828 -0.672,0 -1.203,1.5 -1.156,-1.5 -0.656,0 z" /><path
         id="path50"
         style="fill:#000000;fill-opacity:1;fill-rule:nonzero;stroke:none"
         d="m 47.004,21.892 c 0,1.75 0.508,3.082 1.531,4 l 0.485,0 c -0.293,-0.324 -0.508,-0.594 -0.641,-0.813 -0.5,-0.844 -0.75,-1.906 -0.75,-3.187 0,-1.606 0.379,-2.848 1.141,-3.735 l 0.25,-0.265 -0.485,0 c -1.023,0.929 -1.531,2.258 -1.531,4 z" /><path
         id="path52"
         style="fill:#000000;fill-opacity:1;fill-rule:nonzero;stroke:none"
         d="m 49.613,22.985 0,0.469 0.688,0 0,1 0.562,0 0,-1 1.125,0 0,-0.469 -1.125,0 0,-1.968 c 0,-0.469 0.145,-0.703 0.438,-0.703 0.219,0 0.453,0.086 0.703,0.265 l 0.125,-0.469 c -0.375,-0.21 -0.774,-0.312 -1.188,-0.312 -0.437,0 -0.656,0.344 -0.656,1.031 l 0,2.156 -0.672,0 z" /><path
         id="path54"
         style="fill:#000000;fill-opacity:1;fill-rule:nonzero;stroke:none"
         d="m 52.801,17.892 c 0.133,0.148 0.242,0.273 0.328,0.375 0.094,0.105 0.211,0.281 0.359,0.531 0.157,0.242 0.274,0.492 0.36,0.75 0.093,0.262 0.175,0.594 0.25,1 0.07,0.414 0.109,0.863 0.109,1.344 0,0.5 -0.043,0.961 -0.125,1.39 -0.086,0.438 -0.168,0.782 -0.25,1.032 -0.086,0.25 -0.215,0.5 -0.391,0.75 -0.168,0.257 -0.281,0.425 -0.343,0.5 -0.063,0.07 -0.164,0.179 -0.297,0.328 l 0.484,0 c 1.031,-0.918 1.547,-2.246 1.547,-3.985 0,-1.761 -0.516,-3.097 -1.547,-4.015 l -0.484,0 z" /><path
         id="path56"
         style="fill:#ffa200;fill-opacity:1;fill-rule:nonzero;stroke:none"
         d="m 150.379,26.778 c 0,-14.789 -11.988,-26.777 -26.777,-26.777 -14.79,0 -26.782,11.988 -26.782,26.777 0,14.79 11.992,26.782 26.782,26.782 14.789,0 26.777,-11.992 26.777,-26.782 z" /><path
         id="path58"
         style="fill:#000000;fill-opacity:1;fill-rule:nonzero;stroke:none"
         d="m 117.578,23.028 0.641,0 c 0.332,-0.781 0.582,-1.398 0.75,-1.843 0.176,-0.438 0.281,-0.715 0.312,-0.828 0.031,-0.118 0.063,-0.278 0.094,-0.485 0.008,0.363 0.363,1.414 1.063,3.156 l 0.593,0 -1.734,-4.281 c -0.156,-0.351 -0.305,-0.594 -0.438,-0.719 -0.125,-0.132 -0.289,-0.203 -0.484,-0.203 -0.219,0 -0.414,0.024 -0.578,0.063 l -0.047,0.515 c 0.289,-0.082 0.488,-0.125 0.594,-0.125 0.144,0 0.25,0.055 0.312,0.157 0.071,0.105 0.188,0.336 0.344,0.687 0.031,0.094 0.055,0.168 0.078,0.219 0.02,0.055 0.031,0.094 0.031,0.125 0,0.039 -0.011,0.086 -0.031,0.141 l -1.5,3.421 z" /><path
         id="path60"
         style="fill:#000000;fill-opacity:1;fill-rule:nonzero;stroke:none"
         d="m 121.797,21.466 c 0,1.75 0.508,3.082 1.531,4 l 0.484,0 c -0.292,-0.324 -0.507,-0.594 -0.64,-0.813 -0.5,-0.843 -0.75,-1.906 -0.75,-3.187 0,-1.606 0.379,-2.848 1.14,-3.734 l 0.25,-0.266 -0.484,0 c -1.023,0.93 -1.531,2.258 -1.531,4 z" /><path
         id="path62"
         style="fill:#000000;fill-opacity:1;fill-rule:nonzero;stroke:none"
         d="m 124.406,22.56 0,0.468 0.688,0 0,1 0.562,0 0,-1 1.125,0 0,-0.468 -1.125,0 0,-1.969 c 0,-0.469 0.145,-0.703 0.438,-0.703 0.218,0 0.453,0.086 0.703,0.265 l 0.125,-0.468 c -0.375,-0.211 -0.774,-0.313 -1.188,-0.313 -0.437,0 -0.656,0.344 -0.656,1.031 l 0,2.157 -0.672,0 z" /><path
         id="path64"
         style="fill:#000000;fill-opacity:1;fill-rule:nonzero;stroke:none"
         d="m 127.594,17.466 c 0.133,0.148 0.242,0.273 0.328,0.375 0.094,0.105 0.211,0.281 0.359,0.531 0.157,0.242 0.274,0.492 0.36,0.75 0.093,0.262 0.175,0.594 0.25,1 0.07,0.414 0.109,0.863 0.109,1.344 0,0.5 -0.043,0.961 -0.125,1.391 -0.086,0.437 -0.168,0.781 -0.25,1.031 -0.086,0.25 -0.215,0.5 -0.391,0.75 -0.168,0.258 -0.281,0.426 -0.343,0.5 -0.063,0.07 -0.164,0.18 -0.297,0.328 l 0.484,0 c 1.031,-0.918 1.547,-2.246 1.547,-3.984 0,-1.762 -0.516,-3.098 -1.547,-4.016 l -0.484,0 z" /><path
         id="path66"
         style="fill:#000000;fill-opacity:1;fill-rule:nonzero;stroke:none"
         d="m 111.887,33.13 c 0,0.82 0.242,1.52 0.734,2.094 0.5,0.582 1.086,0.875 1.766,0.875 0.675,0 1.258,-0.293 1.75,-0.875 0.5,-0.574 0.75,-1.274 0.75,-2.094 0,-0.844 -0.25,-1.547 -0.75,-2.109 -0.5,-0.555 -1.086,-0.828 -1.75,-0.828 -0.68,0 -1.266,0.281 -1.766,0.843 -0.492,0.563 -0.734,1.258 -0.734,2.094 z m 1.25,1.797 c -0.356,-0.43 -0.532,-0.992 -0.532,-1.688 0,-0.699 0.165,-1.296 0.5,-1.796 0.333,-0.493 0.758,-0.735 1.282,-0.735 0.508,0 0.929,0.242 1.265,0.735 0.344,0.488 0.516,1.085 0.516,1.796 0,0.696 -0.18,1.258 -0.531,1.688 -0.356,0.437 -0.774,0.656 -1.25,0.656 -0.481,0 -0.899,-0.219 -1.25,-0.656 z" /><path
         id="path68"
         style="fill:#000000;fill-opacity:1;fill-rule:nonzero;stroke:none"
         d="m 117.98,31.333 0,2.594 0.625,0 0,-2.688 c 0,-0.187 0.04,-0.324 0.125,-0.406 0.082,-0.074 0.254,-0.109 0.516,-0.109 0.27,0 0.488,0.07 0.656,0.219 0.176,0.144 0.274,0.316 0.297,0.515 0,0.051 0,0.125 0,0.219 l 0,2.25 0.625,0 0,-3.563 -0.609,0 0,0.391 c -0.356,-0.324 -0.82,-0.484 -1.391,-0.484 -0.168,0 -0.308,0.027 -0.422,0.078 -0.105,0.051 -0.187,0.109 -0.25,0.172 -0.054,0.062 -0.093,0.148 -0.125,0.265 -0.031,0.114 -0.047,0.203 -0.047,0.266 0,0.07 0,0.164 0,0.281 z" /><path
         id="path70"
         style="fill:#000000;fill-opacity:1;fill-rule:nonzero;stroke:none"
         d="m 121.621,33.458 0,0.469 0.688,0 0,1 0.562,0 0,-1 1.125,0 0,-0.469 -1.125,0 0,-1.969 c 0,-0.468 0.145,-0.703 0.438,-0.703 0.218,0 0.453,0.086 0.703,0.266 l 0.125,-0.469 c -0.375,-0.211 -0.774,-0.312 -1.188,-0.312 -0.437,0 -0.656,0.343 -0.656,1.031 l 0,2.156 -0.672,0 z" /><path
         id="path72"
         style="fill:#000000;fill-opacity:1;fill-rule:nonzero;stroke:none"
         d="m 125.012,28.802 0,5.125 0.609,0 0,-0.391 c 0.383,0.313 0.828,0.469 1.328,0.469 0.363,0 0.664,-0.187 0.906,-0.562 0.239,-0.368 0.36,-0.793 0.36,-1.282 0,-0.554 -0.153,-1.008 -0.453,-1.359 -0.293,-0.356 -0.637,-0.531 -1.032,-0.531 -0.398,0 -0.761,0.156 -1.093,0.468 l 0,-1.937 -0.625,0 z m 0.625,2.578 c 0,-0.125 0.078,-0.262 0.234,-0.406 0.156,-0.137 0.336,-0.203 0.547,-0.203 0.301,0 0.566,0.125 0.797,0.375 0.238,0.257 0.359,0.593 0.359,1 0,0.351 -0.105,0.664 -0.312,0.937 -0.2,0.27 -0.453,0.406 -0.766,0.406 -0.062,0 -0.121,-0.007 -0.172,-0.015 -0.054,0 -0.105,-0.012 -0.156,-0.031 -0.043,-0.024 -0.086,-0.043 -0.125,-0.063 -0.043,-0.023 -0.078,-0.043 -0.109,-0.062 -0.032,-0.024 -0.063,-0.043 -0.094,-0.063 -0.024,-0.023 -0.047,-0.047 -0.078,-0.078 -0.024,-0.024 -0.043,-0.043 -0.063,-0.063 -0.011,-0.011 -0.023,-0.027 -0.031,-0.046 l -0.031,-0.032 0,-1.656 z" /><path
         id="path74"
         style="fill:#000000;fill-opacity:1;fill-rule:nonzero;stroke:none"
         d="m 129.152,31.333 0,2.594 0.625,0 0,-2.688 c 0,-0.187 0.039,-0.324 0.125,-0.406 0.082,-0.074 0.254,-0.109 0.516,-0.109 0.27,0 0.488,0.07 0.656,0.219 0.176,0.144 0.274,0.316 0.297,0.515 0,0.051 0,0.125 0,0.219 l 0,2.25 0.625,0 0,-3.563 -0.609,0 0,0.391 c -0.356,-0.324 -0.821,-0.484 -1.391,-0.484 -0.168,0 -0.308,0.027 -0.422,0.078 -0.105,0.051 -0.187,0.109 -0.25,0.172 -0.054,0.062 -0.094,0.148 -0.125,0.265 -0.031,0.114 -0.047,0.203 -0.047,0.266 0,0.07 0,0.164 0,0.281 z" /><path
         id="path76"
         style="fill:#000000;fill-opacity:1;fill-rule:nonzero;stroke:none"
         d="m 132.793,33.458 0,0.469 0.687,0 0,1 0.563,0 0,-1 1.125,0 0,-0.469 -1.125,0 0,-1.969 c 0,-0.468 0.145,-0.703 0.437,-0.703 0.219,0 0.454,0.086 0.704,0.266 l 0.125,-0.469 c -0.375,-0.211 -0.774,-0.312 -1.188,-0.312 -0.437,0 -0.656,0.343 -0.656,1.031 l 0,2.156 -0.672,0 z" /><path
         id="path78"
         style="fill:#399ce2;fill-opacity:1;fill-rule:nonzero;stroke:none"
         d="m 106.379,102.985 c 0,-14.789 -11.988,-26.777 -26.777,-26.777 -14.79,0 -26.782,11.988 -26.782,26.777 0,14.793 11.992,26.782 26.782,26.782 14.789,0 26.777,-11.989 26.777,-26.782 z" /><path
         id="path80"
         style="fill:#000000;fill-opacity:1;fill-rule:nonzero;stroke:none"
         d="m 69.07,111.216 0,0.531 4.86,0 0,-0.531 -2.063,0 0,-4.984 -0.719,0 0,4.984 -2.078,0 z" /><path
         id="path82"
         style="fill:#000000;fill-opacity:1;fill-rule:nonzero;stroke:none"
         d="m 73.93,107.138 c 0,0.195 0.07,0.367 0.218,0.515 0.145,0.145 0.336,0.254 0.579,0.329 0.25,0.07 0.488,0.125 0.718,0.156 0.227,0.031 0.461,0.047 0.703,0.047 l 0,0.281 c -0.011,0.344 -0.078,0.586 -0.203,0.734 -0.136,0.157 -0.308,0.235 -0.515,0.235 -0.407,0 -0.809,-0.137 -1.203,-0.407 l -0.047,0.547 c 0.406,0.227 0.828,0.344 1.265,0.344 0.364,0 0.672,-0.125 0.922,-0.375 0.25,-0.242 0.383,-0.531 0.406,-0.875 l 0,-2.437 -0.609,0 0,0.281 c -0.023,-0.024 -0.074,-0.059 -0.156,-0.11 -0.074,-0.043 -0.227,-0.101 -0.453,-0.171 -0.219,-0.063 -0.461,-0.094 -0.719,-0.094 -0.305,0 -0.531,0.109 -0.688,0.328 -0.148,0.219 -0.218,0.441 -0.218,0.672 z m 0.578,0 c 0,-0.137 0.066,-0.258 0.203,-0.36 0.144,-0.093 0.328,-0.14 0.547,-0.14 0.226,0 0.43,0.047 0.609,0.14 0.188,0.102 0.281,0.27 0.281,0.5 l 0,0.5 c -0.168,0 -0.339,-0.011 -0.515,-0.031 -0.168,-0.023 -0.344,-0.054 -0.531,-0.094 -0.18,-0.043 -0.325,-0.109 -0.438,-0.203 -0.105,-0.086 -0.156,-0.187 -0.156,-0.312 z" /><path
         id="path84"
         style="fill:#000000;fill-opacity:1;fill-rule:nonzero;stroke:none"
         d="m 77.836,106.232 0,3.593 0.562,0 0,-0.718 c 0.063,0.101 0.141,0.203 0.235,0.296 0.094,0.094 0.242,0.192 0.453,0.297 0.219,0.102 0.457,0.16 0.719,0.172 l 0,-0.531 c -0.137,-0.012 -0.278,-0.043 -0.422,-0.094 -0.137,-0.043 -0.281,-0.117 -0.438,-0.219 -0.148,-0.093 -0.265,-0.242 -0.359,-0.437 -0.094,-0.199 -0.141,-0.438 -0.141,-0.719 l 0,-1.64 -0.609,0 z" /><path
         id="path86"
         style="fill:#000000;fill-opacity:1;fill-rule:nonzero;stroke:none"
         d="m 80.148,105.669 c 0,0.344 0.172,0.613 0.516,0.813 -0.137,0.195 -0.203,0.398 -0.203,0.609 0,0.238 0.078,0.461 0.234,0.672 l 0,0.015 c -0.179,0.227 -0.265,0.493 -0.265,0.797 0,0.375 0.125,0.68 0.375,0.922 0.25,0.25 0.547,0.375 0.89,0.375 0.27,0 0.532,-0.09 0.782,-0.265 l -0.016,0.015 c 0.394,0.164 0.816,0.25 1.266,0.25 l 0.078,-0.5 c -0.157,0.008 -0.313,0.016 -0.469,0.016 -0.012,0 -0.211,-0.012 -0.594,-0.031 l -0.078,0.062 c 0.207,-0.281 0.313,-0.562 0.313,-0.844 0,-0.355 -0.125,-0.664 -0.375,-0.922 -0.243,-0.261 -0.543,-0.39 -0.907,-0.39 -0.23,0 -0.468,0.078 -0.718,0.234 -0.063,-0.117 -0.094,-0.215 -0.094,-0.297 0,-0.105 0.031,-0.203 0.094,-0.297 0.062,-0.085 0.179,-0.125 0.359,-0.125 l 0.594,0 c 0.187,0 0.343,-0.007 0.468,-0.015 0.133,-0.012 0.297,-0.043 0.485,-0.094 0.195,-0.043 0.359,-0.125 0.484,-0.25 0.133,-0.117 0.235,-0.266 0.297,-0.453 0.02,-0.102 0.031,-0.203 0.031,-0.297 0,-0.312 -0.172,-0.566 -0.515,-0.766 -0.344,-0.207 -0.766,-0.312 -1.266,-0.312 -0.492,0 -0.906,0.105 -1.25,0.312 -0.344,0.2 -0.516,0.454 -0.516,0.766 z m 0.563,0 c 0,-0.144 0.066,-0.266 0.203,-0.359 0.145,-0.102 0.305,-0.172 0.484,-0.203 0.176,-0.039 0.348,-0.063 0.516,-0.063 0.332,0 0.617,0.059 0.859,0.172 0.239,0.117 0.36,0.262 0.36,0.437 0,0.368 -0.399,0.547 -1.188,0.547 l -0.734,0 c -0.156,-0.019 -0.281,-0.082 -0.375,-0.187 -0.086,-0.102 -0.125,-0.219 -0.125,-0.344 z m 0.281,2.906 c 0,-0.261 0.063,-0.468 0.188,-0.625 0.132,-0.148 0.312,-0.218 0.531,-0.218 0.176,0 0.336,0.062 0.484,0.187 0.145,0.133 0.219,0.352 0.219,0.656 0,0.258 -0.07,0.461 -0.203,0.61 -0.125,0.156 -0.297,0.234 -0.516,0.234 -0.179,0 -0.34,-0.07 -0.484,-0.203 -0.149,-0.125 -0.219,-0.34 -0.219,-0.641 z" /><path
         id="path88"
         style="fill:#000000;fill-opacity:1;fill-rule:nonzero;stroke:none"
         d="m 84.195,108.044 c 0,0.52 0.16,0.961 0.485,1.328 0.32,0.363 0.703,0.547 1.14,0.547 0.157,0 0.305,-0.027 0.453,-0.078 0.145,-0.055 0.289,-0.137 0.438,-0.25 0.144,-0.117 0.266,-0.293 0.359,-0.531 0.094,-0.231 0.149,-0.512 0.172,-0.844 l 0,-0.219 -2.484,0 c 0.019,-0.406 0.144,-0.734 0.375,-0.984 0.226,-0.25 0.5,-0.375 0.812,-0.375 0.407,0 0.813,0.144 1.219,0.437 l 0.047,-0.531 c -0.406,-0.273 -0.828,-0.406 -1.266,-0.406 -0.511,0 -0.933,0.187 -1.265,0.562 -0.325,0.383 -0.485,0.832 -0.485,1.344 z m 0.61,0.391 1.984,0 c -0.031,0.207 -0.09,0.379 -0.172,0.515 -0.086,0.145 -0.179,0.25 -0.281,0.313 -0.106,0.062 -0.199,0.101 -0.281,0.125 -0.086,0.019 -0.164,0.031 -0.235,0.031 -0.273,0 -0.496,-0.105 -0.672,-0.312 -0.179,-0.211 -0.293,-0.434 -0.343,-0.672 z" /><path
         id="path90"
         style="fill:#000000;fill-opacity:1;fill-rule:nonzero;stroke:none"
         d="m 87.617,109.325 0,0.469 0.688,0 0,1 0.562,0 0,-1 1.125,0 0,-0.469 -1.125,0 0,-1.968 c 0,-0.469 0.145,-0.704 0.438,-0.704 0.218,0 0.453,0.086 0.703,0.266 l 0.125,-0.469 c -0.375,-0.211 -0.774,-0.312 -1.188,-0.312 -0.437,0 -0.656,0.344 -0.656,1.031 l 0,2.156 -0.672,0 z" /><path
         id="path92"
         style="fill:#000000;fill-opacity:1;fill-rule:nonzero;stroke:none"
         d="m 74.023,99.325 0,0.469 0.594,0 0,0.578 c 0,0.02 -0.008,0.051 -0.015,0.094 0,0.039 0,0.078 0,0.109 0,0.489 0.132,0.864 0.406,1.125 0.269,0.258 0.582,0.391 0.937,0.391 0.196,0 0.41,-0.027 0.641,-0.078 l 0,-0.547 c -0.231,0.094 -0.449,0.141 -0.656,0.141 -0.18,0 -0.344,-0.055 -0.5,-0.157 -0.157,-0.105 -0.235,-0.297 -0.235,-0.578 l 0,-1.078 0.891,0 0,-0.469 -0.875,0 0,-3.093 -0.594,0 0,3.093 -0.594,0 z" /><path
         id="path94"
         style="fill:#000000;fill-opacity:1;fill-rule:nonzero;stroke:none"
         d="m 76.883,98.232 c 0,1.75 0.508,3.082 1.531,4 l 0.484,0 c -0.293,-0.325 -0.507,-0.594 -0.64,-0.813 -0.5,-0.844 -0.75,-1.906 -0.75,-3.187 0,-1.606 0.379,-2.848 1.14,-3.735 l 0.25,-0.265 -0.484,0 c -1.023,0.929 -1.531,2.257 -1.531,4 z" /><path
         id="path96"
         style="fill:#000000;fill-opacity:1;fill-rule:nonzero;stroke:none"
         d="m 79.492,99.325 0,0.469 0.688,0 0,1 0.562,0 0,-1 1.125,0 0,-0.469 -1.125,0 0,-1.968 c 0,-0.469 0.145,-0.704 0.438,-0.704 0.218,0 0.453,0.086 0.703,0.266 l 0.125,-0.469 c -0.375,-0.211 -0.774,-0.312 -1.188,-0.312 -0.437,0 -0.656,0.344 -0.656,1.031 l 0,2.156 -0.672,0 z" /><path
         id="path98"
         style="fill:#000000;fill-opacity:1;fill-rule:nonzero;stroke:none"
         d="m 82.68,94.232 c 0.132,0.148 0.242,0.273 0.328,0.375 0.094,0.105 0.211,0.281 0.359,0.531 0.156,0.242 0.274,0.492 0.36,0.75 0.093,0.262 0.175,0.594 0.25,1 0.07,0.414 0.109,0.863 0.109,1.344 0,0.5 -0.043,0.961 -0.125,1.39 -0.086,0.438 -0.168,0.781 -0.25,1.031 -0.086,0.25 -0.215,0.5 -0.391,0.75 -0.168,0.258 -0.281,0.426 -0.343,0.5 -0.063,0.071 -0.165,0.18 -0.297,0.329 l 0.484,0 c 1.031,-0.918 1.547,-2.247 1.547,-3.985 0,-1.762 -0.516,-3.097 -1.547,-4.015 l -0.484,0 z" /><path
         id="path100"
         style="fill:#b0b0b0;fill-opacity:1;fill-rule:nonzero;stroke:none"
         d="m 60.797,57.669 -3.242,1.871 7.773,13.465 -6.094,3.52 -7.773,-13.465 -3.242,1.871 1.906,-11.219 10.672,3.957 z" /><path
         id="path102"
         style="fill:#000000;fill-opacity:1;fill-rule:nonzero;stroke:none"
         d="m 0.008,69.677 0,0.5 c 0.301,0 0.578,0.07 0.828,0.219 0.258,0.156 0.406,0.367 0.437,0.64 l 0,1.907 c 0,0.062 0.004,0.125 0.016,0.187 0.008,0.063 0.039,0.145 0.094,0.25 0.062,0.102 0.14,0.191 0.234,0.266 0.102,0.07 0.25,0.132 0.438,0.187 0.195,0.063 0.422,0.094 0.672,0.094 l 0.421,0 0,-0.484 -0.187,0 c -0.25,0 -0.453,-0.016 -0.609,-0.047 C 2.195,73.372 2.086,73.333 2.023,73.271 1.969,73.208 1.934,73.15 1.914,73.099 1.891,73.044 1.883,72.978 1.883,72.896 l 0,-1.688 C 1.883,71.009 1.852,70.833 1.789,70.677 1.727,70.521 1.648,70.396 1.555,70.302 1.461,70.216 1.352,70.146 1.227,70.083 1.102,70.028 0.984,69.993 0.883,69.974 0.789,69.95 0.695,69.935 0.602,69.927 c 0.125,-0.012 0.25,-0.039 0.375,-0.078 0.125,-0.031 0.257,-0.094 0.406,-0.188 0.156,-0.086 0.273,-0.215 0.359,-0.39 0.094,-0.18 0.141,-0.387 0.141,-0.625 l 0,-1.719 c 0,-0.164 0.07,-0.289 0.219,-0.375 0.144,-0.094 0.429,-0.141 0.859,-0.141 l 0.187,0 0,-0.484 -0.359,0 c -0.375,0 -0.695,0.058 -0.953,0.172 -0.074,0.031 -0.141,0.07 -0.203,0.109 -0.055,0.043 -0.102,0.086 -0.141,0.125 -0.043,0.031 -0.078,0.074 -0.109,0.125 -0.024,0.043 -0.043,0.086 -0.063,0.125 -0.011,0.031 -0.023,0.074 -0.031,0.125 -0.012,0.043 -0.016,0.074 -0.016,0.094 0,0.023 0,0.055 0,0.094 l 0,1.734 C 1.25,68.849 1.23,68.989 1.211,69.052 1.125,69.247 0.969,69.4 0.742,69.505 0.523,69.618 0.277,69.677 0.008,69.677 Z" /><path
         id="path104"
         style="fill:#000000;fill-opacity:1;fill-rule:nonzero;stroke:none"
         d="m 3.805,71.021 0,0.468 0.593,0 0,0.579 c 0,0.019 -0.007,0.05 -0.015,0.093 0,0.039 0,0.078 0,0.11 0,0.488 0.133,0.863 0.406,1.125 0.27,0.257 0.582,0.39 0.938,0.39 0.195,0 0.41,-0.027 0.64,-0.078 l 0,-0.547 c -0.23,0.094 -0.449,0.141 -0.656,0.141 -0.18,0 -0.344,-0.055 -0.5,-0.156 C 5.055,73.04 4.977,72.849 4.977,72.568 l 0,-1.079 0.89,0 0,-0.468 -0.875,0 0,-3.094 -0.594,0 0,3.094 -0.593,0 z" /><path
         id="path106"
         style="fill:#000000;fill-opacity:1;fill-rule:nonzero;stroke:none"
         d="m 6.664,69.927 c 0,1.75 0.508,3.082 1.531,4 l 0.485,0 C 8.387,73.603 8.172,73.333 8.039,73.114 c -0.5,-0.843 -0.75,-1.906 -0.75,-3.187 0,-1.606 0.379,-2.848 1.141,-3.734 l 0.25,-0.266 -0.485,0 c -1.023,0.93 -1.531,2.258 -1.531,4 z" /><path
         id="path108"
         style="fill:#000000;fill-opacity:1;fill-rule:nonzero;stroke:none"
         d="m 9.273,71.021 0,0.468 0.688,0 0,1 0.562,0 0,-1 1.125,0 0,-0.468 -1.125,0 0,-1.969 c 0,-0.469 0.145,-0.703 0.438,-0.703 0.219,0 0.453,0.086 0.703,0.265 l 0.125,-0.468 c -0.375,-0.211 -0.773,-0.313 -1.187,-0.313 -0.438,0 -0.657,0.344 -0.657,1.031 l 0,2.157 -0.672,0 z" /><path
         id="path110"
         style="fill:#000000;fill-opacity:1;fill-rule:nonzero;stroke:none"
         d="m 12.102,69.943 2.125,0 0,-0.469 -2.125,0 0,0.469 z" /><path
         id="path112"
         style="fill:#000000;fill-opacity:1;fill-rule:nonzero;stroke:none"
         d="m 15.336,67.927 0,3.594 0.578,0 0,-0.547 c 0.313,0.394 0.703,0.594 1.172,0.594 0.195,0 0.363,-0.032 0.5,-0.094 0.144,-0.055 0.254,-0.125 0.328,-0.219 0.082,-0.086 0.141,-0.195 0.172,-0.328 0.039,-0.125 0.066,-0.242 0.078,-0.344 0.008,-0.094 0.016,-0.215 0.016,-0.359 l 0,-2.297 -0.625,0 0,2.25 c 0,0.094 0,0.164 0,0.219 0,0.05 -0.016,0.125 -0.047,0.218 -0.031,0.102 -0.074,0.18 -0.125,0.235 -0.055,0.062 -0.133,0.113 -0.235,0.156 -0.105,0.051 -0.23,0.078 -0.375,0.078 -0.281,0 -0.492,-0.121 -0.625,-0.359 -0.125,-0.242 -0.187,-0.531 -0.187,-0.875 l 0,-1.922 -0.625,0 z" /><path
         id="path114"
         style="fill:#000000;fill-opacity:1;fill-rule:nonzero;stroke:none"
         d="m 19.273,65.927 c 0.133,0.148 0.243,0.273 0.329,0.375 0.093,0.105 0.21,0.281 0.359,0.531 0.156,0.242 0.273,0.492 0.359,0.75 0.094,0.262 0.176,0.594 0.25,1 0.071,0.414 0.11,0.863 0.11,1.344 0,0.5 -0.043,0.961 -0.125,1.391 -0.086,0.437 -0.168,0.781 -0.25,1.031 -0.086,0.25 -0.215,0.5 -0.391,0.75 -0.168,0.258 -0.281,0.426 -0.344,0.5 -0.062,0.07 -0.164,0.179 -0.297,0.328 l 0.485,0 c 1.031,-0.918 1.547,-2.246 1.547,-3.984 0,-1.762 -0.516,-3.098 -1.547,-4.016 l -0.485,0 z" /><path
         id="path116"
         style="fill:#000000;fill-opacity:1;fill-rule:nonzero;stroke:none"
         d="m 22.711,67.927 0,0.672 0.672,0 0,-0.672 -0.328,-1 -0.344,0 0.203,1 -0.203,0 z" /><path
         id="path118"
         style="fill:#000000;fill-opacity:1;fill-rule:nonzero;stroke:none"
         d="m 24.93,68.599 0.672,0 0,-0.672 -0.672,0 0,0.672 z" /><path
         id="path120"
         style="fill:#000000;fill-opacity:1;fill-rule:nonzero;stroke:none"
         d="m 27.148,68.599 0.672,0 0,-0.672 -0.672,0 0,0.672 z" /><path
         id="path122"
         style="fill:#000000;fill-opacity:1;fill-rule:nonzero;stroke:none"
         d="m 29.367,68.599 0.672,0 0,-0.672 -0.672,0 0,0.672 z" /><path
         id="path124"
         style="fill:#000000;fill-opacity:1;fill-rule:nonzero;stroke:none"
         d="m 31.586,67.927 0,0.672 0.672,0 0,-0.672 -0.328,-1 -0.344,0 0.203,1 -0.203,0 z" /><path
         id="path126"
         style="fill:#000000;fill-opacity:1;fill-rule:nonzero;stroke:none"
         d="m 33.258,71.021 0,0.468 0.594,0 0,0.579 c 0,0.019 -0.008,0.05 -0.016,0.093 0,0.039 0,0.078 0,0.11 0,0.488 0.133,0.863 0.406,1.125 0.27,0.257 0.582,0.39 0.938,0.39 0.195,0 0.41,-0.027 0.64,-0.078 l 0,-0.547 c -0.23,0.094 -0.449,0.141 -0.656,0.141 -0.18,0 -0.344,-0.055 -0.5,-0.156 C 34.508,73.04 34.43,72.849 34.43,72.568 l 0,-1.079 0.89,0 0,-0.468 -0.875,0 0,-3.094 -0.593,0 0,3.094 -0.594,0 z" /><path
         id="path128"
         style="fill:#000000;fill-opacity:1;fill-rule:nonzero;stroke:none"
         d="m 36.117,69.927 c 0,1.75 0.508,3.082 1.531,4 l 0.485,0 c -0.293,-0.324 -0.508,-0.594 -0.641,-0.813 -0.5,-0.843 -0.75,-1.906 -0.75,-3.187 0,-1.606 0.379,-2.848 1.141,-3.734 l 0.25,-0.266 -0.485,0 c -1.023,0.93 -1.531,2.258 -1.531,4 z" /><path
         id="path130"
         style="fill:#000000;fill-opacity:1;fill-rule:nonzero;stroke:none"
         d="m 38.727,71.021 0,0.468 0.687,0 0,1 0.563,0 0,-1 1.125,0 0,-0.468 -1.125,0 0,-1.969 c 0,-0.469 0.144,-0.703 0.437,-0.703 0.219,0 0.453,0.086 0.703,0.265 l 0.125,-0.468 c -0.375,-0.211 -0.773,-0.313 -1.187,-0.313 -0.438,0 -0.657,0.344 -0.657,1.031 l 0,2.157 -0.671,0 z" /><path
         id="path132"
         style="fill:#000000;fill-opacity:1;fill-rule:nonzero;stroke:none"
         d="m 41.914,65.927 c 0.133,0.148 0.242,0.273 0.328,0.375 0.094,0.105 0.211,0.281 0.36,0.531 0.156,0.242 0.273,0.492 0.359,0.75 0.094,0.262 0.176,0.594 0.25,1 0.07,0.414 0.109,0.863 0.109,1.344 0,0.5 -0.043,0.961 -0.125,1.391 -0.086,0.437 -0.168,0.781 -0.25,1.031 -0.086,0.25 -0.215,0.5 -0.39,0.75 -0.168,0.258 -0.282,0.426 -0.344,0.5 -0.063,0.07 -0.164,0.179 -0.297,0.328 l 0.484,0 c 1.032,-0.918 1.547,-2.246 1.547,-3.984 0,-1.762 -0.515,-3.098 -1.547,-4.016 l -0.484,0 z" /><path
         id="path134"
         style="fill:#000000;fill-opacity:1;fill-rule:nonzero;stroke:none"
         d="m 45.008,66.411 c 0.008,0 0.023,0 0.047,0 0.156,0 0.273,0.008 0.359,0.016 0.094,0 0.211,0.012 0.359,0.031 0.145,0.024 0.254,0.063 0.329,0.125 0.082,0.055 0.132,0.121 0.156,0.203 0.008,0.024 0.015,0.094 0.015,0.219 l 0,1.641 c 0,0.238 0.039,0.445 0.125,0.625 0.094,0.175 0.211,0.304 0.36,0.39 0.156,0.094 0.297,0.157 0.422,0.188 0.125,0.039 0.25,0.066 0.375,0.078 -0.125,0.008 -0.25,0.031 -0.375,0.062 -0.125,0.039 -0.266,0.102 -0.422,0.188 -0.149,0.094 -0.266,0.226 -0.36,0.406 -0.086,0.176 -0.125,0.383 -0.125,0.625 l 0,1.719 c 0,0.164 -0.074,0.289 -0.218,0.375 -0.149,0.094 -0.438,0.141 -0.875,0.141 l -0.172,0 0,0.484 0.39,0 c 0.157,-0.012 0.266,-0.016 0.329,-0.016 0.062,0 0.144,-0.011 0.25,-0.031 0.113,-0.023 0.222,-0.059 0.328,-0.109 0.07,-0.032 0.14,-0.071 0.203,-0.11 0.062,-0.043 0.113,-0.086 0.156,-0.125 0.039,-0.031 0.07,-0.074 0.094,-0.125 0.031,-0.054 0.051,-0.093 0.062,-0.125 0.02,-0.031 0.035,-0.074 0.047,-0.125 0.008,-0.054 0.016,-0.09 0.016,-0.109 0,-0.024 0,-0.059 0,-0.109 0,-0.043 0,-0.063 0,-0.063 l 0,-1.656 c 0.008,-0.199 0.035,-0.34 0.078,-0.422 0.082,-0.199 0.234,-0.356 0.453,-0.469 0.219,-0.105 0.461,-0.156 0.734,-0.156 l 0,-0.5 c -0.304,0 -0.578,-0.078 -0.828,-0.234 -0.25,-0.149 -0.39,-0.356 -0.422,-0.625 l -0.015,-0.188 0,-1.656 C 46.871,66.767 46.852,66.622 46.82,66.536 46.715,66.329 46.539,66.177 46.289,66.083 46.047,65.982 45.762,65.927 45.43,65.927 l -0.422,0 0,0.484 z" /><path
         id="path136"
         style="fill:#b0b0b0;fill-opacity:1;fill-rule:nonzero;stroke:none"
         d="m 95,67.482 3.242,1.871 7.778,-13.465 6.093,3.519 -7.773,13.465 3.242,1.871 L 96.91,78.7 95,67.482 Z" /><path
         id="path138"
         style="fill:#b0b0b0;fill-opacity:1;fill-rule:nonzero;stroke:none"
         d="m 113.375,64.712 -3.242,-1.875 -7.774,13.469 -6.097,-3.52 7.773,-13.465 -3.238,-1.875 10.668,-3.957 1.91,11.223 z" /><path
         id="path140"
         style="fill:#000000;fill-opacity:1;fill-rule:nonzero;stroke:none"
         d="m 111.207,71.489 0.641,0 c 0.332,-0.781 0.582,-1.398 0.75,-1.843 0.175,-0.438 0.281,-0.715 0.312,-0.828 0.031,-0.118 0.063,-0.278 0.094,-0.485 0.008,0.363 0.363,1.414 1.062,3.156 l 0.594,0 -1.734,-4.281 c -0.156,-0.351 -0.305,-0.594 -0.438,-0.719 -0.125,-0.132 -0.289,-0.203 -0.484,-0.203 -0.219,0 -0.414,0.024 -0.578,0.063 l -0.047,0.515 c 0.289,-0.082 0.488,-0.125 0.594,-0.125 0.144,0 0.25,0.055 0.312,0.157 0.07,0.105 0.188,0.336 0.344,0.687 0.031,0.094 0.055,0.168 0.078,0.219 0.02,0.055 0.031,0.094 0.031,0.125 0,0.039 -0.011,0.086 -0.031,0.141 l -1.5,3.421 z" /><path
         id="path142"
         style="fill:#000000;fill-opacity:1;fill-rule:nonzero;stroke:none"
         d="m 115.426,69.927 c 0,1.75 0.508,3.082 1.531,4 l 0.484,0 c -0.293,-0.324 -0.507,-0.594 -0.64,-0.813 -0.5,-0.843 -0.75,-1.906 -0.75,-3.187 0,-1.606 0.379,-2.848 1.14,-3.734 l 0.25,-0.266 -0.484,0 c -1.023,0.93 -1.531,2.258 -1.531,4 z" /><path
         id="path144"
         style="fill:#000000;fill-opacity:1;fill-rule:nonzero;stroke:none"
         d="m 118.035,71.021 0,0.468 0.688,0 0,1 0.562,0 0,-1 1.125,0 0,-0.468 -1.125,0 0,-1.969 c 0,-0.469 0.145,-0.703 0.438,-0.703 0.218,0 0.453,0.086 0.703,0.265 l 0.125,-0.468 c -0.375,-0.211 -0.774,-0.313 -1.188,-0.313 -0.437,0 -0.656,0.344 -0.656,1.031 l 0,2.157 -0.672,0 z" /><path
         id="path146"
         style="fill:#000000;fill-opacity:1;fill-rule:nonzero;stroke:none"
         d="m 121.223,65.927 c 0.132,0.148 0.242,0.273 0.328,0.375 0.094,0.105 0.211,0.281 0.359,0.531 0.156,0.242 0.274,0.492 0.36,0.75 0.093,0.262 0.175,0.594 0.25,1 0.07,0.414 0.109,0.863 0.109,1.344 0,0.5 -0.043,0.961 -0.125,1.391 -0.086,0.437 -0.168,0.781 -0.25,1.031 -0.086,0.25 -0.215,0.5 -0.391,0.75 -0.168,0.258 -0.281,0.426 -0.343,0.5 -0.063,0.07 -0.165,0.179 -0.297,0.328 l 0.484,0 c 1.031,-0.918 1.547,-2.246 1.547,-3.984 0,-1.762 -0.516,-3.098 -1.547,-4.016 l -0.484,0 z" /><path
         id="path148"
         style="fill:#000000;fill-opacity:1;fill-rule:nonzero;stroke:none"
         d="m 124.66,68.88 c -0.211,0 -0.312,0.082 -0.312,0.25 0,0.164 0.093,0.25 0.281,0.25 0.008,0 0.019,-0.008 0.031,-0.016 0.02,0 0.035,0 0.047,0 l 4.656,0 c 0.196,0 0.297,-0.078 0.297,-0.234 0,-0.168 -0.109,-0.25 -0.328,-0.25 l -4.672,0 z m -0.312,1.844 c 0,0.164 0.101,0.25 0.312,0.25 l 4.688,0 c 0.207,0 0.312,-0.086 0.312,-0.25 0,-0.031 -0.008,-0.063 -0.015,-0.094 -0.012,-0.031 -0.043,-0.062 -0.094,-0.094 -0.043,-0.031 -0.106,-0.047 -0.188,-0.047 l -4.718,0 c -0.086,0 -0.153,0.016 -0.204,0.047 -0.043,0.032 -0.07,0.063 -0.078,0.094 -0.011,0.031 -0.015,0.063 -0.015,0.094 z" /><path
         id="path150"
         style="fill:#000000;fill-opacity:1;fill-rule:nonzero;stroke:none"
         d="m 130.332,71.021 0,0.468 0.594,0 0,0.579 c 0,0.019 -0.008,0.05 -0.016,0.093 0,0.039 0,0.078 0,0.11 0,0.488 0.133,0.863 0.406,1.125 0.27,0.257 0.582,0.39 0.938,0.39 0.195,0 0.41,-0.027 0.641,-0.078 l 0,-0.547 c -0.231,0.094 -0.45,0.141 -0.657,0.141 -0.179,0 -0.343,-0.055 -0.5,-0.156 -0.156,-0.106 -0.234,-0.297 -0.234,-0.578 l 0,-1.079 0.891,0 0,-0.468 -0.875,0 0,-3.094 -0.594,0 0,3.094 -0.594,0 z" /><path
         id="path152"
         style="fill:#000000;fill-opacity:1;fill-rule:nonzero;stroke:none"
         d="m 133.191,69.927 c 0,1.75 0.508,3.082 1.532,4 l 0.484,0 c -0.293,-0.324 -0.508,-0.594 -0.641,-0.813 -0.5,-0.843 -0.75,-1.906 -0.75,-3.187 0,-1.606 0.379,-2.848 1.141,-3.734 l 0.25,-0.266 -0.484,0 c -1.024,0.93 -1.532,2.258 -1.532,4 z" /><path
         id="path154"
         style="fill:#000000;fill-opacity:1;fill-rule:nonzero;stroke:none"
         d="m 135.801,71.021 0,0.468 0.687,0 0,1 0.563,0 0,-1 1.125,0 0,-0.468 -1.125,0 0,-1.969 c 0,-0.469 0.144,-0.703 0.437,-0.703 0.219,0 0.453,0.086 0.703,0.265 l 0.125,-0.468 c -0.375,-0.211 -0.773,-0.313 -1.187,-0.313 -0.438,0 -0.656,0.344 -0.656,1.031 l 0,2.157 -0.672,0 z" /><path
         id="path156"
         style="fill:#000000;fill-opacity:1;fill-rule:nonzero;stroke:none"
         d="m 139.051,69.755 c -0.043,0.051 -0.063,0.109 -0.063,0.172 0,0.062 0.016,0.113 0.047,0.156 0.039,0.039 0.082,0.067 0.125,0.078 0.051,0.008 0.117,0.016 0.203,0.016 l 2.047,0 0,2.047 c 0,0.238 0.082,0.359 0.25,0.359 0.164,0 0.25,-0.121 0.25,-0.359 l 0,-2.047 2.078,0 c 0.219,0 0.328,-0.086 0.328,-0.25 0,-0.156 -0.105,-0.234 -0.312,-0.234 l -2.094,0 0,-2.063 c 0,-0.238 -0.086,-0.359 -0.25,-0.359 -0.062,0 -0.117,0.023 -0.156,0.062 -0.043,0.031 -0.07,0.07 -0.078,0.11 -0.012,0.023 -0.016,0.085 -0.016,0.187 l 0,2.063 -2.062,0 c -0.024,-0.012 -0.043,-0.016 -0.063,-0.016 -0.105,0 -0.183,0.023 -0.234,0.078 z" /><path
         id="path158"
         style="fill:#000000;fill-opacity:1;fill-rule:nonzero;stroke:none"
         d="m 145.488,72.364 0,0.454 c 0.645,0 1.157,0.175 1.532,0.531 l 0.156,0 0,-4.953 1,0 0,-0.469 -2.641,0 0,0.469 1,0 0,4.14 c -0.324,-0.117 -0.672,-0.172 -1.047,-0.172 z" /><path
         id="path160"
         style="fill:#000000;fill-opacity:1;fill-rule:nonzero;stroke:none"
         d="m 149.207,65.927 c 0.133,0.148 0.242,0.273 0.328,0.375 0.094,0.105 0.211,0.281 0.36,0.531 0.156,0.242 0.273,0.492 0.359,0.75 0.094,0.262 0.176,0.594 0.25,1 0.07,0.414 0.109,0.863 0.109,1.344 0,0.5 -0.043,0.961 -0.125,1.391 -0.086,0.437 -0.168,0.781 -0.25,1.031 -0.086,0.25 -0.215,0.5 -0.39,0.75 -0.168,0.258 -0.282,0.426 -0.344,0.5 -0.063,0.07 -0.164,0.179 -0.297,0.328 l 0.484,0 c 1.032,-0.918 1.547,-2.246 1.547,-3.984 0,-1.762 -0.515,-3.098 -1.547,-4.016 l -0.484,0 z" /><path
         id="path162"
         style="fill:#000000;fill-opacity:1;fill-rule:nonzero;stroke:none"
         d="m 152.316,73.349 c 0.414,0.289 0.864,0.437 1.344,0.437 0.301,0 0.555,-0.043 0.766,-0.125 0.219,-0.086 0.379,-0.195 0.484,-0.328 0.102,-0.137 0.176,-0.273 0.219,-0.406 0.051,-0.137 0.078,-0.281 0.078,-0.438 0,-0.105 -0.012,-0.211 -0.031,-0.312 -0.024,-0.094 -0.047,-0.18 -0.078,-0.25 -0.032,-0.063 -0.075,-0.133 -0.125,-0.203 -0.043,-0.063 -0.086,-0.11 -0.125,-0.141 -0.032,-0.031 -0.071,-0.07 -0.11,-0.109 -0.043,-0.043 -0.07,-0.071 -0.078,-0.078 -0.492,-0.469 -0.734,-1.055 -0.734,-1.75 l 0,-0.313 -0.547,0 0,0.25 c 0,0.313 0.023,0.594 0.078,0.844 0.063,0.258 0.141,0.473 0.234,0.641 0.094,0.175 0.18,0.316 0.266,0.421 0.082,0.114 0.176,0.219 0.281,0.313 0.102,0.101 0.164,0.164 0.188,0.187 0.101,0.145 0.156,0.317 0.156,0.516 0,0.531 -0.309,0.797 -0.922,0.797 -0.43,0 -0.812,-0.156 -1.156,-0.469 l -0.188,0.516 z m 1,-5.422 0,0.672 0.672,0 0,-0.672 -0.672,0 z" /></g></g></svg>