<?xml version="1.0" encoding="UTF-8" standalone="no"?>
<svg
   xmlns:dc="http://purl.org/dc/elements/1.1/"
   xmlns:cc="http://creativecommons.org/ns#"
   xmlns:rdf="http://www.w3.org/1999/02/22-rdf-syntax-ns#"
   xmlns:svg="http://www.w3.org/2000/svg"
   xmlns="http://www.w3.org/2000/svg"
   viewBox="0 0 176.94841 162.20842"
   height="162.20842"
   width="176.94841"
   xml:space="preserve"
   version="1.1"
   id="svg2"><metadata
     id="metadata8"><rdf:RDF><cc:Work
         rdf:about=""><dc:format>image/svg+xml</dc:format><dc:type
           rdf:resource="http://purl.org/dc/dcmitype/StillImage" /></cc:Work></rdf:RDF></metadata><defs
     id="defs6" /><g
     transform="matrix(1.25,0,0,-1.25,0,162.20842)"
     id="g10"><g
       id="g12"><path
         id="path14"
         style="fill:#39e29b;fill-opacity:1;fill-rule:nonzero;stroke:none"
         d="M 53.559,26.778 C 53.559,11.989 41.57,0.001 26.781,0.001 11.988,0.001 0,11.989 0,26.778 0,41.568 11.988,53.56 26.781,53.56 41.57,53.56 53.559,41.568 53.559,26.778 Z" /><path
         id="path16"
         style="fill:#000000;fill-opacity:1;fill-rule:nonzero;stroke:none"
         d="m 7.965,29.892 0,5.547 1.969,0 c 0.531,0 0.988,-0.125 1.375,-0.375 0.382,-0.25 0.679,-0.602 0.89,-1.047 0.219,-0.438 0.328,-0.903 0.328,-1.391 0,-0.742 -0.218,-1.359 -0.656,-1.859 -0.437,-0.5 -0.953,-0.789 -1.547,-0.86 -0.086,-0.011 -0.211,-0.015 -0.375,-0.015 l -1.984,0 z m 0.687,0.453 1.141,0 c 0.664,0 1.187,0.242 1.562,0.734 0.313,0.406 0.469,0.922 0.469,1.547 0,0.676 -0.179,1.238 -0.531,1.688 -0.355,0.457 -0.855,0.687 -1.5,0.687 l -1.141,0 0,-4.656 z" /><path
         id="path18"
         style="fill:#000000;fill-opacity:1;fill-rule:nonzero;stroke:none"
         d="m 13.09,33.454 0.64,0 c 0.332,-0.781 0.582,-1.398 0.75,-1.844 0.176,-0.437 0.282,-0.714 0.313,-0.828 0.031,-0.117 0.062,-0.277 0.094,-0.484 0.008,0.363 0.363,1.414 1.062,3.156 l 0.594,0 -1.734,-4.281 c -0.157,-0.352 -0.305,-0.594 -0.438,-0.719 -0.125,-0.133 -0.289,-0.203 -0.484,-0.203 -0.219,0 -0.414,0.024 -0.578,0.063 l -0.047,0.515 c 0.289,-0.082 0.488,-0.125 0.593,-0.125 0.145,0 0.25,0.055 0.313,0.156 0.07,0.106 0.187,0.336 0.344,0.688 0.031,0.094 0.054,0.168 0.078,0.219 0.019,0.054 0.031,0.093 0.031,0.125 0,0.039 -0.012,0.086 -0.031,0.14 l -1.5,3.422 z" /><path
         id="path20"
         style="fill:#000000;fill-opacity:1;fill-rule:nonzero;stroke:none"
         d="m 17.309,29.892 0,3.593 0.578,0 0,-0.546 c 0.312,0.394 0.703,0.593 1.172,0.593 0.195,0 0.363,-0.031 0.5,-0.093 0.144,-0.055 0.253,-0.125 0.328,-0.219 0.082,-0.086 0.14,-0.195 0.172,-0.328 0.039,-0.125 0.066,-0.242 0.078,-0.344 0.008,-0.094 0.015,-0.215 0.015,-0.359 l 0,-2.297 -0.625,0 0,2.25 c 0,0.093 0,0.164 0,0.218 0,0.051 -0.015,0.125 -0.047,0.219 -0.031,0.102 -0.074,0.18 -0.125,0.235 -0.054,0.062 -0.132,0.113 -0.234,0.156 -0.105,0.051 -0.23,0.078 -0.375,0.078 -0.281,0 -0.492,-0.121 -0.625,-0.359 -0.125,-0.243 -0.187,-0.532 -0.187,-0.875 l 0,-1.922 -0.625,0 z" /><path
         id="path22"
         style="fill:#000000;fill-opacity:1;fill-rule:nonzero;stroke:none"
         d="m 21.168,30.798 c 0,0.195 0.07,0.367 0.219,0.516 0.144,0.144 0.336,0.254 0.578,0.328 0.25,0.07 0.488,0.125 0.719,0.156 0.226,0.031 0.461,0.047 0.703,0.047 l 0,0.281 c -0.012,0.344 -0.078,0.586 -0.203,0.734 -0.137,0.157 -0.309,0.235 -0.516,0.235 -0.406,0 -0.809,-0.137 -1.203,-0.406 l -0.047,0.546 c 0.406,0.227 0.828,0.344 1.266,0.344 0.363,0 0.671,-0.125 0.921,-0.375 0.25,-0.242 0.383,-0.531 0.407,-0.875 l 0,-2.437 -0.61,0 0,0.281 c -0.023,-0.023 -0.074,-0.059 -0.156,-0.109 -0.074,-0.043 -0.226,-0.102 -0.453,-0.172 -0.219,-0.063 -0.461,-0.094 -0.719,-0.094 -0.304,0 -0.531,0.109 -0.687,0.328 -0.149,0.219 -0.219,0.442 -0.219,0.672 z m 0.578,0 c 0,-0.137 0.066,-0.258 0.203,-0.359 0.145,-0.094 0.328,-0.141 0.547,-0.141 0.227,0 0.43,0.047 0.609,0.141 0.188,0.101 0.282,0.269 0.282,0.5 l 0,0.5 c -0.168,0 -0.34,-0.012 -0.516,-0.032 -0.168,-0.023 -0.344,-0.054 -0.531,-0.093 -0.18,-0.043 -0.324,-0.11 -0.438,-0.204 -0.105,-0.085 -0.156,-0.187 -0.156,-0.312 z" /><path
         id="path24"
         style="fill:#000000;fill-opacity:1;fill-rule:nonzero;stroke:none"
         d="m 25.293,29.892 0,3.593 0.578,0 0,-0.546 c 0.313,0.394 0.703,0.593 1.172,0.593 0.519,0 0.859,-0.218 1.016,-0.656 0.32,0.438 0.722,0.656 1.203,0.656 0.207,0 0.383,-0.039 0.531,-0.109 0.145,-0.063 0.254,-0.141 0.328,-0.234 0.07,-0.086 0.129,-0.196 0.172,-0.329 0.039,-0.136 0.062,-0.25 0.062,-0.343 0.008,-0.086 0.016,-0.196 0.016,-0.328 l 0,-2.297 -0.641,0 0,2.25 c 0,0.008 0,0.023 0,0.047 0,0.019 -0.007,0.062 -0.015,0.125 -0.012,0.062 -0.027,0.117 -0.047,0.171 -0.023,0.063 -0.055,0.125 -0.094,0.188 -0.031,0.07 -0.074,0.133 -0.125,0.187 -0.054,0.051 -0.121,0.094 -0.203,0.125 -0.086,0.04 -0.184,0.063 -0.297,0.063 -0.281,0 -0.492,-0.121 -0.625,-0.359 -0.125,-0.243 -0.187,-0.532 -0.187,-0.875 l 0,-1.922 -0.625,0 0,2.25 c 0,0.093 0,0.164 0,0.218 0,0.051 -0.016,0.125 -0.047,0.219 -0.031,0.102 -0.074,0.18 -0.125,0.235 -0.055,0.062 -0.133,0.113 -0.235,0.156 -0.105,0.051 -0.23,0.078 -0.375,0.078 -0.281,0 -0.492,-0.121 -0.625,-0.359 -0.125,-0.243 -0.187,-0.532 -0.187,-0.875 l 0,-1.922 -0.625,0 z" /><path
         id="path26"
         style="fill:#000000;fill-opacity:1;fill-rule:nonzero;stroke:none"
         d="m 31.652,29.892 0,3.562 0.61,0 0,-3.562 -0.61,0 z m -0.062,4.406 0,0.703 0.719,0 0,-0.703 -0.719,0 z" /><path
         id="path28"
         style="fill:#000000;fill-opacity:1;fill-rule:nonzero;stroke:none"
         d="m 33.199,31.673 c 0,0.5 0.156,0.941 0.469,1.328 0.32,0.383 0.754,0.578 1.297,0.578 0.25,0 0.453,-0.027 0.609,-0.078 0.164,-0.043 0.375,-0.133 0.625,-0.266 l -0.094,-0.531 c -0.261,0.164 -0.464,0.266 -0.609,0.297 -0.148,0.039 -0.328,0.063 -0.547,0.063 -0.367,0 -0.648,-0.137 -0.844,-0.407 -0.187,-0.273 -0.281,-0.601 -0.281,-0.984 0,-0.398 0.102,-0.727 0.313,-0.984 0.207,-0.25 0.476,-0.375 0.812,-0.375 0.406,0 0.821,0.144 1.25,0.437 l 0.031,-0.547 c -0.418,-0.273 -0.851,-0.406 -1.296,-0.406 -0.493,0 -0.903,0.18 -1.235,0.547 -0.336,0.375 -0.5,0.816 -0.5,1.328 z" /><path
         id="path30"
         style="fill:#000000;fill-opacity:1;fill-rule:nonzero;stroke:none"
         d="m 36.824,30.798 c 0,0.195 0.071,0.367 0.219,0.516 0.145,0.144 0.336,0.254 0.578,0.328 0.25,0.07 0.488,0.125 0.719,0.156 0.226,0.031 0.461,0.047 0.703,0.047 l 0,0.281 c -0.012,0.344 -0.078,0.586 -0.203,0.734 -0.137,0.157 -0.309,0.235 -0.516,0.235 -0.406,0 -0.808,-0.137 -1.203,-0.406 l -0.047,0.546 c 0.406,0.227 0.828,0.344 1.266,0.344 0.363,0 0.672,-0.125 0.922,-0.375 0.25,-0.242 0.383,-0.531 0.406,-0.875 l 0,-2.437 -0.609,0 0,0.281 C 39.035,30.15 38.984,30.114 38.902,30.064 38.828,30.021 38.676,29.962 38.449,29.892 38.23,29.829 37.988,29.798 37.73,29.798 c -0.304,0 -0.531,0.109 -0.687,0.328 -0.148,0.219 -0.219,0.442 -0.219,0.672 z m 0.578,0 c 0,-0.137 0.067,-0.258 0.203,-0.359 0.145,-0.094 0.329,-0.141 0.547,-0.141 0.227,0 0.43,0.047 0.61,0.141 0.187,0.101 0.281,0.269 0.281,0.5 l 0,0.5 c -0.168,0 -0.34,-0.012 -0.516,-0.032 -0.168,-0.023 -0.343,-0.054 -0.531,-0.093 -0.18,-0.043 -0.324,-0.11 -0.437,-0.204 -0.106,-0.085 -0.157,-0.187 -0.157,-0.312 z" /><path
         id="path32"
         style="fill:#000000;fill-opacity:1;fill-rule:nonzero;stroke:none"
         d="m 40.949,35.673 0.609,0 0,-5.781 -0.609,0 0,5.781 z" /><path
         id="path34"
         style="fill:#000000;fill-opacity:1;fill-rule:nonzero;stroke:none"
         d="m 7.559,20.267 0.109,0.672 c 0.562,-0.45 1.133,-0.672 1.719,-0.672 0.343,0 0.625,0.101 0.843,0.312 0.219,0.219 0.329,0.469 0.329,0.75 0,0.207 -0.071,0.395 -0.204,0.563 -0.125,0.176 -0.293,0.304 -0.5,0.39 -0.011,0.008 -0.339,0.098 -0.984,0.266 -0.324,0.082 -0.609,0.254 -0.859,0.516 -0.25,0.269 -0.375,0.597 -0.375,0.984 0,0.406 0.164,0.77 0.5,1.094 0.332,0.32 0.769,0.484 1.312,0.484 0.5,0 0.989,-0.133 1.469,-0.391 l -0.125,-0.656 c -0.219,0.164 -0.43,0.289 -0.625,0.375 C 9.98,25.036 9.734,25.079 9.434,25.079 9.09,25.079 8.809,24.985 8.59,24.798 8.379,24.61 8.277,24.392 8.277,24.142 c 0,-0.188 0.055,-0.36 0.172,-0.516 0.125,-0.156 0.281,-0.273 0.469,-0.344 0.07,-0.031 0.266,-0.086 0.578,-0.156 0.313,-0.074 0.52,-0.133 0.625,-0.172 0.289,-0.125 0.539,-0.324 0.75,-0.594 0.207,-0.273 0.313,-0.589 0.313,-0.953 0,-0.461 -0.172,-0.855 -0.516,-1.187 -0.336,-0.332 -0.762,-0.5 -1.281,-0.5 -0.649,0 -1.258,0.18 -1.828,0.547 z" /><path
         id="path36"
         style="fill:#000000;fill-opacity:1;fill-rule:nonzero;stroke:none"
         d="m 11.746,23.454 0.641,0 c 0.332,-0.781 0.582,-1.398 0.75,-1.844 0.175,-0.437 0.281,-0.714 0.312,-0.828 0.031,-0.117 0.063,-0.277 0.094,-0.484 0.008,0.363 0.363,1.414 1.062,3.156 l 0.594,0 -1.734,-4.281 c -0.156,-0.352 -0.305,-0.594 -0.438,-0.719 -0.125,-0.133 -0.289,-0.203 -0.484,-0.203 -0.219,0 -0.414,0.024 -0.578,0.063 l -0.047,0.515 c 0.289,-0.082 0.488,-0.125 0.594,-0.125 0.144,0 0.25,0.055 0.312,0.156 0.071,0.106 0.188,0.336 0.344,0.688 0.031,0.094 0.055,0.168 0.078,0.219 0.02,0.054 0.031,0.093 0.031,0.125 0,0.039 -0.011,0.086 -0.031,0.14 l -1.5,3.422 z" /><path
         id="path38"
         style="fill:#000000;fill-opacity:1;fill-rule:nonzero;stroke:none"
         d="m 15.543,20.157 0.094,0.547 c 0.008,0 0.039,-0.023 0.093,-0.062 0.063,-0.032 0.11,-0.059 0.141,-0.078 0.031,-0.012 0.078,-0.032 0.141,-0.063 0.07,-0.031 0.133,-0.058 0.187,-0.078 0.051,-0.023 0.113,-0.043 0.188,-0.063 0.082,-0.023 0.164,-0.039 0.25,-0.046 0.082,0 0.164,0 0.25,0 0.269,0 0.461,0.05 0.578,0.156 0.113,0.113 0.172,0.238 0.172,0.375 0,0.133 -0.047,0.242 -0.141,0.328 -0.094,0.094 -0.199,0.156 -0.312,0.187 -0.055,0.02 -0.172,0.047 -0.36,0.079 -0.179,0.039 -0.312,0.07 -0.406,0.093 -0.219,0.071 -0.414,0.192 -0.578,0.36 -0.168,0.164 -0.25,0.375 -0.25,0.625 0,0.125 0.015,0.238 0.047,0.343 0.039,0.114 0.101,0.227 0.187,0.344 0.094,0.114 0.227,0.203 0.406,0.266 0.188,0.07 0.411,0.109 0.672,0.109 0.383,0 0.774,-0.086 1.172,-0.25 L 17.98,22.798 c -0.011,0.008 -0.042,0.023 -0.093,0.047 -0.055,0.019 -0.086,0.035 -0.094,0.047 -0.012,0.008 -0.043,0.023 -0.094,0.047 -0.054,0.019 -0.09,0.031 -0.109,0.031 -0.012,0.008 -0.043,0.019 -0.094,0.031 -0.043,0.02 -0.078,0.031 -0.109,0.031 -0.024,0.008 -0.059,0.02 -0.11,0.032 -0.054,0.007 -0.101,0.015 -0.14,0.015 -0.043,0.008 -0.09,0.016 -0.141,0.016 -0.055,0 -0.109,0 -0.172,0 -0.242,0 -0.414,-0.055 -0.515,-0.156 -0.106,-0.094 -0.157,-0.204 -0.157,-0.329 0,-0.179 0.067,-0.308 0.203,-0.39 0.145,-0.074 0.348,-0.133 0.61,-0.172 0.258,-0.043 0.441,-0.09 0.547,-0.141 0.187,-0.086 0.347,-0.214 0.484,-0.39 0.133,-0.168 0.203,-0.371 0.203,-0.61 0,-0.125 -0.023,-0.246 -0.062,-0.359 -0.032,-0.117 -0.094,-0.234 -0.188,-0.359 -0.086,-0.118 -0.219,-0.211 -0.406,-0.282 -0.18,-0.07 -0.391,-0.109 -0.641,-0.109 -0.468,0 -0.922,0.117 -1.359,0.359 z" /><path
         id="path40"
         style="fill:#000000;fill-opacity:1;fill-rule:nonzero;stroke:none"
         d="m 18.527,22.985 0,0.469 0.688,0 0,1 0.562,0 0,-1 1.125,0 0,-0.469 -1.125,0 0,-1.968 c 0,-0.469 0.145,-0.703 0.438,-0.703 0.219,0 0.453,0.086 0.703,0.265 l 0.125,-0.469 c -0.375,-0.21 -0.773,-0.312 -1.188,-0.312 -0.437,0 -0.656,0.344 -0.656,1.031 l 0,2.156 -0.672,0 z" /><path
         id="path42"
         style="fill:#000000;fill-opacity:1;fill-rule:nonzero;stroke:none"
         d="m 21.543,21.704 c 0,0.52 0.16,0.961 0.484,1.328 0.321,0.364 0.703,0.547 1.141,0.547 0.156,0 0.305,-0.027 0.453,-0.078 0.145,-0.055 0.289,-0.137 0.438,-0.25 0.144,-0.117 0.265,-0.293 0.359,-0.531 0.094,-0.231 0.148,-0.512 0.172,-0.844 l 0,-0.219 -2.485,0 c 0.02,-0.406 0.145,-0.734 0.375,-0.984 0.227,-0.25 0.5,-0.375 0.813,-0.375 0.406,0 0.812,0.145 1.219,0.437 l 0.047,-0.531 c -0.407,-0.273 -0.829,-0.406 -1.266,-0.406 -0.512,0 -0.934,0.187 -1.266,0.562 -0.324,0.383 -0.484,0.833 -0.484,1.344 z m 0.609,0.391 1.985,0 c -0.032,0.207 -0.09,0.379 -0.172,0.515 -0.086,0.145 -0.18,0.25 -0.281,0.313 -0.106,0.062 -0.2,0.102 -0.282,0.125 -0.086,0.02 -0.164,0.031 -0.234,0.031 -0.273,0 -0.496,-0.105 -0.672,-0.312 -0.18,-0.211 -0.293,-0.434 -0.344,-0.672 z" /><path
         id="path44"
         style="fill:#000000;fill-opacity:1;fill-rule:nonzero;stroke:none"
         d="m 25.465,19.892 0,3.593 0.578,0 0,-0.546 c 0.312,0.394 0.703,0.593 1.172,0.593 0.519,0 0.859,-0.218 1.015,-0.656 0.321,0.438 0.723,0.656 1.204,0.656 0.207,0 0.382,-0.039 0.531,-0.109 0.144,-0.063 0.254,-0.141 0.328,-0.234 0.07,-0.086 0.129,-0.196 0.172,-0.329 0.039,-0.136 0.062,-0.25 0.062,-0.343 0.008,-0.086 0.016,-0.196 0.016,-0.328 l 0,-2.297 -0.641,0 0,2.25 c 0,0.008 0,0.023 0,0.047 0,0.019 -0.007,0.062 -0.015,0.125 -0.012,0.062 -0.028,0.117 -0.047,0.171 -0.024,0.063 -0.055,0.125 -0.094,0.188 -0.031,0.07 -0.074,0.133 -0.125,0.187 -0.055,0.051 -0.121,0.094 -0.203,0.125 -0.086,0.04 -0.184,0.063 -0.297,0.063 -0.281,0 -0.492,-0.121 -0.625,-0.359 -0.125,-0.243 -0.187,-0.532 -0.187,-0.875 l 0,-1.922 -0.625,0 0,2.25 c 0,0.093 0,0.164 0,0.218 0,0.051 -0.016,0.125 -0.047,0.219 -0.032,0.102 -0.075,0.18 -0.125,0.235 -0.055,0.062 -0.133,0.113 -0.235,0.156 -0.105,0.051 -0.23,0.078 -0.375,0.078 -0.281,0 -0.492,-0.121 -0.625,-0.359 -0.125,-0.243 -0.187,-0.532 -0.187,-0.875 l 0,-1.922 -0.625,0 z" /><path
         id="path46"
         style="fill:#000000;fill-opacity:1;fill-rule:nonzero;stroke:none"
         d="m 33.855,19.892 1.547,1.828 0,0.015 -1.5,1.719 0.672,0 1.094,-1.328 0.016,0 1.062,1.328 0.656,0 -1.468,-1.719 0,-0.015 1.609,-1.828 -0.672,0 -1.203,1.5 -1.156,-1.5 -0.657,0 z" /><path
         id="path48"
         style="fill:#000000;fill-opacity:1;fill-rule:nonzero;stroke:none"
         d="m 38.184,21.892 c 0,1.75 0.507,3.082 1.531,4 l 0.484,0 c -0.293,-0.324 -0.508,-0.594 -0.64,-0.813 -0.5,-0.844 -0.75,-1.906 -0.75,-3.187 0,-1.606 0.379,-2.848 1.14,-3.735 l 0.25,-0.265 -0.484,0 c -1.024,0.929 -1.531,2.258 -1.531,4 z" /><path
         id="path50"
         style="fill:#000000;fill-opacity:1;fill-rule:nonzero;stroke:none"
         d="m 40.793,22.985 0,0.469 0.687,0 0,1 0.563,0 0,-1 1.125,0 0,-0.469 -1.125,0 0,-1.968 c 0,-0.469 0.145,-0.703 0.437,-0.703 0.219,0 0.454,0.086 0.704,0.265 l 0.125,-0.469 c -0.375,-0.21 -0.774,-0.312 -1.188,-0.312 -0.437,0 -0.656,0.344 -0.656,1.031 l 0,2.156 -0.672,0 z" /><path
         id="path52"
         style="fill:#000000;fill-opacity:1;fill-rule:nonzero;stroke:none"
         d="m 43.98,17.892 c 0.133,0.148 0.243,0.273 0.329,0.375 0.093,0.105 0.211,0.281 0.359,0.531 0.156,0.242 0.273,0.492 0.359,0.75 0.094,0.262 0.176,0.594 0.25,1 0.071,0.414 0.11,0.863 0.11,1.344 0,0.5 -0.043,0.961 -0.125,1.39 -0.086,0.438 -0.168,0.782 -0.25,1.032 -0.086,0.25 -0.215,0.5 -0.391,0.75 -0.168,0.257 -0.281,0.425 -0.344,0.5 -0.062,0.07 -0.164,0.179 -0.297,0.328 l 0.485,0 c 1.031,-0.918 1.547,-2.246 1.547,-3.985 0,-1.761 -0.516,-3.097 -1.547,-4.015 l -0.485,0 z" /><path
         id="path54"
         style="fill:#ffa200;fill-opacity:1;fill-rule:nonzero;stroke:none"
         d="M 141.559,26.778 C 141.559,11.989 129.57,0.001 114.781,0.001 99.988,0.001 88,11.989 88,26.778 c 0,14.79 11.988,26.782 26.781,26.782 14.789,0 26.778,-11.992 26.778,-26.782 z" /><path
         id="path56"
         style="fill:#000000;fill-opacity:1;fill-rule:nonzero;stroke:none"
         d="m 108.758,23.028 0.64,0 c 0.332,-0.781 0.582,-1.398 0.75,-1.843 0.176,-0.438 0.282,-0.715 0.313,-0.828 0.031,-0.118 0.062,-0.278 0.094,-0.485 0.007,0.363 0.363,1.414 1.062,3.156 l 0.594,0 -1.734,-4.281 c -0.157,-0.351 -0.305,-0.594 -0.438,-0.719 -0.125,-0.132 -0.289,-0.203 -0.484,-0.203 -0.219,0 -0.414,0.024 -0.578,0.063 l -0.047,0.515 c 0.289,-0.082 0.488,-0.125 0.593,-0.125 0.145,0 0.25,0.055 0.313,0.157 0.07,0.105 0.187,0.336 0.344,0.687 0.031,0.094 0.054,0.168 0.078,0.219 0.019,0.055 0.031,0.094 0.031,0.125 0,0.039 -0.012,0.086 -0.031,0.141 l -1.5,3.421 z" /><path
         id="path58"
         style="fill:#000000;fill-opacity:1;fill-rule:nonzero;stroke:none"
         d="m 112.977,21.466 c 0,1.75 0.507,3.082 1.531,4 l 0.484,0 c -0.293,-0.324 -0.508,-0.594 -0.64,-0.813 -0.5,-0.843 -0.75,-1.906 -0.75,-3.187 0,-1.606 0.378,-2.848 1.14,-3.734 l 0.25,-0.266 -0.484,0 c -1.024,0.93 -1.531,2.258 -1.531,4 z" /><path
         id="path60"
         style="fill:#000000;fill-opacity:1;fill-rule:nonzero;stroke:none"
         d="m 115.586,22.56 0,0.468 0.687,0 0,1 0.563,0 0,-1 1.125,0 0,-0.468 -1.125,0 0,-1.969 c 0,-0.469 0.144,-0.703 0.437,-0.703 0.219,0 0.454,0.086 0.704,0.265 l 0.125,-0.468 c -0.375,-0.211 -0.774,-0.313 -1.188,-0.313 -0.437,0 -0.656,0.344 -0.656,1.031 l 0,2.157 -0.672,0 z" /><path
         id="path62"
         style="fill:#000000;fill-opacity:1;fill-rule:nonzero;stroke:none"
         d="m 118.773,17.466 c 0.133,0.148 0.243,0.273 0.329,0.375 0.093,0.105 0.21,0.281 0.359,0.531 0.156,0.242 0.273,0.492 0.359,0.75 0.094,0.262 0.176,0.594 0.25,1 0.071,0.414 0.11,0.863 0.11,1.344 0,0.5 -0.043,0.961 -0.125,1.391 -0.086,0.437 -0.168,0.781 -0.25,1.031 -0.086,0.25 -0.215,0.5 -0.391,0.75 -0.168,0.258 -0.281,0.426 -0.344,0.5 -0.062,0.07 -0.164,0.18 -0.297,0.328 l 0.485,0 c 1.031,-0.918 1.547,-2.246 1.547,-3.984 0,-1.762 -0.516,-3.098 -1.547,-4.016 l -0.485,0 z" /><path
         id="path64"
         style="fill:#000000;fill-opacity:1;fill-rule:nonzero;stroke:none"
         d="m 103.066,33.13 c 0,0.82 0.243,1.52 0.735,2.094 0.5,0.582 1.086,0.875 1.765,0.875 0.676,0 1.258,-0.293 1.75,-0.875 0.5,-0.574 0.75,-1.274 0.75,-2.094 0,-0.844 -0.25,-1.547 -0.75,-2.109 -0.5,-0.555 -1.086,-0.828 -1.75,-0.828 -0.679,0 -1.265,0.281 -1.765,0.843 -0.492,0.563 -0.735,1.258 -0.735,2.094 z m 1.25,1.797 c -0.355,-0.43 -0.531,-0.992 -0.531,-1.688 0,-0.699 0.164,-1.296 0.5,-1.796 0.332,-0.493 0.758,-0.735 1.281,-0.735 0.508,0 0.93,0.242 1.266,0.735 0.344,0.488 0.516,1.085 0.516,1.796 0,0.696 -0.18,1.258 -0.532,1.688 -0.355,0.437 -0.773,0.656 -1.25,0.656 -0.48,0 -0.898,-0.219 -1.25,-0.656 z" /><path
         id="path66"
         style="fill:#000000;fill-opacity:1;fill-rule:nonzero;stroke:none"
         d="m 109.16,31.333 0,2.594 0.625,0 0,-2.688 c 0,-0.187 0.039,-0.324 0.125,-0.406 0.082,-0.074 0.254,-0.109 0.516,-0.109 0.269,0 0.488,0.07 0.656,0.219 0.176,0.144 0.273,0.316 0.297,0.515 0,0.051 0,0.125 0,0.219 l 0,2.25 0.625,0 0,-3.563 -0.609,0 0,0.391 c -0.356,-0.324 -0.821,-0.484 -1.391,-0.484 -0.168,0 -0.309,0.027 -0.422,0.078 -0.105,0.051 -0.187,0.109 -0.25,0.172 -0.055,0.062 -0.094,0.148 -0.125,0.265 -0.031,0.114 -0.047,0.203 -0.047,0.266 0,0.07 0,0.164 0,0.281 z" /><path
         id="path68"
         style="fill:#000000;fill-opacity:1;fill-rule:nonzero;stroke:none"
         d="m 112.801,33.458 0,0.469 0.687,0 0,1 0.563,0 0,-1 1.125,0 0,-0.469 -1.125,0 0,-1.969 c 0,-0.468 0.144,-0.703 0.437,-0.703 0.219,0 0.453,0.086 0.703,0.266 l 0.125,-0.469 c -0.375,-0.211 -0.773,-0.312 -1.187,-0.312 -0.438,0 -0.656,0.343 -0.656,1.031 l 0,2.156 -0.672,0 z" /><path
         id="path70"
         style="fill:#000000;fill-opacity:1;fill-rule:nonzero;stroke:none"
         d="m 116.191,28.802 0,5.125 0.61,0 0,-0.391 c 0.383,0.313 0.828,0.469 1.328,0.469 0.363,0 0.664,-0.187 0.906,-0.562 0.238,-0.368 0.36,-0.793 0.36,-1.282 0,-0.554 -0.153,-1.008 -0.454,-1.359 -0.293,-0.356 -0.636,-0.531 -1.031,-0.531 -0.398,0 -0.762,0.156 -1.094,0.468 l 0,-1.937 -0.625,0 z m 0.625,2.578 c 0,-0.125 0.079,-0.262 0.235,-0.406 0.156,-0.137 0.336,-0.203 0.547,-0.203 0.3,0 0.566,0.125 0.797,0.375 0.238,0.257 0.359,0.593 0.359,1 0,0.351 -0.106,0.664 -0.313,0.937 -0.199,0.27 -0.453,0.406 -0.765,0.406 -0.063,0 -0.121,-0.007 -0.172,-0.015 -0.055,0 -0.106,-0.012 -0.156,-0.031 -0.043,-0.024 -0.086,-0.043 -0.125,-0.063 -0.043,-0.023 -0.078,-0.043 -0.11,-0.062 -0.031,-0.024 -0.062,-0.043 -0.093,-0.063 -0.024,-0.023 -0.047,-0.047 -0.079,-0.078 -0.023,-0.024 -0.043,-0.043 -0.062,-0.063 -0.012,-0.011 -0.024,-0.027 -0.031,-0.046 l -0.032,-0.032 0,-1.656 z" /><path
         id="path72"
         style="fill:#000000;fill-opacity:1;fill-rule:nonzero;stroke:none"
         d="m 120.332,31.333 0,2.594 0.625,0 0,-2.688 c 0,-0.187 0.039,-0.324 0.125,-0.406 0.082,-0.074 0.254,-0.109 0.516,-0.109 0.269,0 0.488,0.07 0.656,0.219 0.176,0.144 0.273,0.316 0.297,0.515 0,0.051 0,0.125 0,0.219 l 0,2.25 0.625,0 0,-3.563 -0.61,0 0,0.391 c -0.355,-0.324 -0.82,-0.484 -1.39,-0.484 -0.168,0 -0.309,0.027 -0.422,0.078 -0.106,0.051 -0.188,0.109 -0.25,0.172 -0.055,0.062 -0.094,0.148 -0.125,0.265 -0.031,0.114 -0.047,0.203 -0.047,0.266 0,0.07 0,0.164 0,0.281 z" /><path
         id="path74"
         style="fill:#000000;fill-opacity:1;fill-rule:nonzero;stroke:none"
         d="m 123.973,33.458 0,0.469 0.687,0 0,1 0.563,0 0,-1 1.125,0 0,-0.469 -1.125,0 0,-1.969 c 0,-0.468 0.144,-0.703 0.437,-0.703 0.219,0 0.453,0.086 0.703,0.266 l 0.125,-0.469 c -0.375,-0.211 -0.773,-0.312 -1.187,-0.312 -0.438,0 -0.656,0.343 -0.656,1.031 l 0,2.156 -0.672,0 z" /><path
         id="path76"
         style="fill:#399ce2;fill-opacity:1;fill-rule:nonzero;stroke:none"
         d="M 97.559,102.985 C 97.559,88.196 85.57,76.208 70.781,76.208 55.988,76.208 44,88.196 44,102.985 c 0,14.793 11.988,26.782 26.781,26.782 14.789,0 26.778,-11.989 26.778,-26.782 z" /><path
         id="path78"
         style="fill:#000000;fill-opacity:1;fill-rule:nonzero;stroke:none"
         d="m 60.25,111.216 0,0.531 4.859,0 0,-0.531 -2.062,0 0,-4.984 -0.719,0 0,4.984 -2.078,0 z" /><path
         id="path80"
         style="fill:#000000;fill-opacity:1;fill-rule:nonzero;stroke:none"
         d="m 65.109,107.138 c 0,0.195 0.071,0.367 0.219,0.515 0.145,0.145 0.336,0.254 0.578,0.329 0.25,0.07 0.489,0.125 0.719,0.156 0.227,0.031 0.461,0.047 0.703,0.047 l 0,0.281 c -0.012,0.344 -0.078,0.586 -0.203,0.734 -0.137,0.157 -0.309,0.235 -0.516,0.235 -0.406,0 -0.808,-0.137 -1.203,-0.407 l -0.047,0.547 c 0.407,0.227 0.829,0.344 1.266,0.344 0.363,0 0.672,-0.125 0.922,-0.375 0.25,-0.242 0.383,-0.531 0.406,-0.875 l 0,-2.437 -0.609,0 0,0.281 c -0.024,-0.024 -0.074,-0.059 -0.156,-0.11 -0.075,-0.043 -0.227,-0.101 -0.454,-0.171 -0.218,-0.063 -0.461,-0.094 -0.718,-0.094 -0.305,0 -0.532,0.109 -0.688,0.328 -0.148,0.219 -0.219,0.441 -0.219,0.672 z m 0.579,0 c 0,-0.137 0.066,-0.258 0.203,-0.36 0.144,-0.093 0.328,-0.14 0.547,-0.14 0.226,0 0.429,0.047 0.609,0.14 0.187,0.102 0.281,0.27 0.281,0.5 l 0,0.5 c -0.168,0 -0.34,-0.011 -0.516,-0.031 -0.167,-0.023 -0.343,-0.054 -0.531,-0.094 -0.179,-0.043 -0.324,-0.109 -0.437,-0.203 -0.106,-0.086 -0.156,-0.187 -0.156,-0.312 z" /><path
         id="path82"
         style="fill:#000000;fill-opacity:1;fill-rule:nonzero;stroke:none"
         d="m 69.016,106.232 0,3.593 0.562,0 0,-0.718 c 0.063,0.101 0.141,0.203 0.234,0.296 0.094,0.094 0.243,0.192 0.454,0.297 0.218,0.102 0.457,0.16 0.718,0.172 l 0,-0.531 c -0.136,-0.012 -0.277,-0.043 -0.422,-0.094 -0.136,-0.043 -0.281,-0.117 -0.437,-0.219 -0.148,-0.093 -0.266,-0.242 -0.359,-0.437 -0.094,-0.199 -0.141,-0.438 -0.141,-0.719 l 0,-1.64 -0.609,0 z" /><path
         id="path84"
         style="fill:#000000;fill-opacity:1;fill-rule:nonzero;stroke:none"
         d="m 71.328,105.669 c 0,0.344 0.172,0.613 0.516,0.813 -0.137,0.195 -0.203,0.398 -0.203,0.609 0,0.238 0.078,0.461 0.234,0.672 l 0,0.015 c -0.18,0.227 -0.266,0.493 -0.266,0.797 0,0.375 0.125,0.68 0.375,0.922 0.25,0.25 0.547,0.375 0.891,0.375 0.27,0 0.531,-0.09 0.781,-0.265 l -0.015,0.015 c 0.394,0.164 0.816,0.25 1.265,0.25 l 0.078,-0.5 c -0.156,0.008 -0.312,0.016 -0.468,0.016 -0.012,0 -0.211,-0.012 -0.594,-0.031 l -0.078,0.062 c 0.207,-0.281 0.312,-0.562 0.312,-0.844 0,-0.355 -0.125,-0.664 -0.375,-0.922 -0.242,-0.261 -0.543,-0.39 -0.906,-0.39 -0.23,0 -0.469,0.078 -0.719,0.234 -0.062,-0.117 -0.094,-0.215 -0.094,-0.297 0,-0.105 0.032,-0.203 0.094,-0.297 0.063,-0.085 0.18,-0.125 0.36,-0.125 l 0.593,0 c 0.188,0 0.344,-0.007 0.469,-0.015 0.133,-0.012 0.297,-0.043 0.484,-0.094 0.196,-0.043 0.36,-0.125 0.485,-0.25 0.133,-0.117 0.234,-0.266 0.297,-0.453 0.019,-0.102 0.031,-0.203 0.031,-0.297 0,-0.312 -0.172,-0.566 -0.516,-0.766 -0.343,-0.207 -0.765,-0.312 -1.265,-0.312 -0.492,0 -0.906,0.105 -1.25,0.312 -0.344,0.2 -0.516,0.454 -0.516,0.766 z m 0.563,0 c 0,-0.144 0.066,-0.266 0.203,-0.359 0.144,-0.102 0.304,-0.172 0.484,-0.203 0.176,-0.039 0.348,-0.063 0.516,-0.063 0.332,0 0.617,0.059 0.859,0.172 0.238,0.117 0.359,0.262 0.359,0.437 0,0.368 -0.398,0.547 -1.187,0.547 l -0.734,0 c -0.157,-0.019 -0.282,-0.082 -0.375,-0.187 -0.086,-0.102 -0.125,-0.219 -0.125,-0.344 z m 0.281,2.906 c 0,-0.261 0.062,-0.468 0.187,-0.625 0.133,-0.148 0.313,-0.218 0.532,-0.218 0.175,0 0.336,0.062 0.484,0.187 0.145,0.133 0.219,0.352 0.219,0.656 0,0.258 -0.071,0.461 -0.203,0.61 -0.125,0.156 -0.297,0.234 -0.516,0.234 -0.18,0 -0.34,-0.07 -0.484,-0.203 -0.149,-0.125 -0.219,-0.34 -0.219,-0.641 z" /><path
         id="path86"
         style="fill:#000000;fill-opacity:1;fill-rule:nonzero;stroke:none"
         d="m 75.375,108.044 c 0,0.52 0.16,0.961 0.484,1.328 0.321,0.363 0.703,0.547 1.141,0.547 0.156,0 0.305,-0.027 0.453,-0.078 0.145,-0.055 0.289,-0.137 0.438,-0.25 0.144,-0.117 0.265,-0.293 0.359,-0.531 0.094,-0.231 0.148,-0.512 0.172,-0.844 l 0,-0.219 -2.484,0 c 0.019,-0.406 0.144,-0.734 0.374,-0.984 0.227,-0.25 0.5,-0.375 0.813,-0.375 0.406,0 0.813,0.144 1.219,0.437 l 0.047,-0.531 c -0.407,-0.273 -0.829,-0.406 -1.266,-0.406 -0.512,0 -0.934,0.187 -1.266,0.562 -0.324,0.383 -0.484,0.832 -0.484,1.344 z m 0.609,0.391 1.985,0 c -0.031,0.207 -0.09,0.379 -0.172,0.515 -0.086,0.145 -0.18,0.25 -0.281,0.313 -0.106,0.062 -0.2,0.101 -0.282,0.125 -0.086,0.019 -0.164,0.031 -0.234,0.031 -0.273,0 -0.496,-0.105 -0.672,-0.312 -0.18,-0.211 -0.293,-0.434 -0.344,-0.672 z" /><path
         id="path88"
         style="fill:#000000;fill-opacity:1;fill-rule:nonzero;stroke:none"
         d="m 78.797,109.325 0,0.469 0.687,0 0,1 0.563,0 0,-1 1.125,0 0,-0.469 -1.125,0 0,-1.968 c 0,-0.469 0.144,-0.704 0.437,-0.704 0.219,0 0.454,0.086 0.704,0.266 l 0.124,-0.469 c -0.374,-0.211 -0.773,-0.312 -1.187,-0.312 -0.437,0 -0.656,0.344 -0.656,1.031 l 0,2.156 -0.672,0 z" /><path
         id="path90"
         style="fill:#000000;fill-opacity:1;fill-rule:nonzero;stroke:none"
         d="m 65.203,99.325 0,0.469 0.594,0 0,0.578 c 0,0.02 -0.008,0.051 -0.016,0.094 0,0.039 0,0.078 0,0.109 0,0.489 0.133,0.864 0.407,1.125 0.269,0.258 0.582,0.391 0.937,0.391 0.195,0 0.41,-0.027 0.641,-0.078 l 0,-0.547 c -0.231,0.094 -0.45,0.141 -0.657,0.141 -0.179,0 -0.343,-0.055 -0.5,-0.157 -0.156,-0.105 -0.234,-0.297 -0.234,-0.578 l 0,-1.078 0.891,0 0,-0.469 -0.875,0 0,-3.093 -0.594,0 0,3.093 -0.594,0 z" /><path
         id="path92"
         style="fill:#000000;fill-opacity:1;fill-rule:nonzero;stroke:none"
         d="m 68.062,98.232 c 0,1.75 0.508,3.082 1.532,4 l 0.484,0 c -0.293,-0.325 -0.508,-0.594 -0.64,-0.813 -0.5,-0.844 -0.75,-1.906 -0.75,-3.187 0,-1.606 0.378,-2.848 1.14,-3.735 l 0.25,-0.265 -0.484,0 c -1.024,0.929 -1.532,2.257 -1.532,4 z" /><path
         id="path94"
         style="fill:#000000;fill-opacity:1;fill-rule:nonzero;stroke:none"
         d="m 70.672,99.325 0,0.469 0.687,0 0,1 0.563,0 0,-1 1.125,0 0,-0.469 -1.125,0 0,-1.968 c 0,-0.469 0.144,-0.704 0.437,-0.704 0.219,0 0.453,0.086 0.703,0.266 L 73.188,96.45 C 72.812,96.239 72.414,96.138 72,96.138 c -0.438,0 -0.656,0.344 -0.656,1.031 l 0,2.156 -0.672,0 z" /><path
         id="path96"
         style="fill:#000000;fill-opacity:1;fill-rule:nonzero;stroke:none"
         d="m 73.859,94.232 c 0.133,0.148 0.243,0.273 0.329,0.375 0.093,0.105 0.21,0.281 0.359,0.531 0.156,0.242 0.273,0.492 0.359,0.75 0.094,0.262 0.176,0.594 0.25,1 0.071,0.414 0.11,0.863 0.11,1.344 0,0.5 -0.043,0.961 -0.125,1.39 -0.086,0.438 -0.168,0.781 -0.25,1.031 -0.086,0.25 -0.215,0.5 -0.391,0.75 -0.168,0.258 -0.281,0.426 -0.344,0.5 -0.062,0.071 -0.164,0.18 -0.297,0.329 l 0.485,0 c 1.031,-0.918 1.547,-2.247 1.547,-3.985 0,-1.762 -0.516,-3.097 -1.547,-4.015 l -0.485,0 z" /></g></g></svg>